<svg width="800" height="800" viewBox="0 0 800 800" fill="none" xmlns="http://www.w3.org/2000/svg">
<path d="M750 400C750 307.174 713.125 218.15 647.487 152.513C581.85 86.8749 492.826 50 400 50C311.867 49.9186 226.948 83.0896 162.205 142.887C97.4617 202.684 57.6612 284.706 50.7535 372.567C43.8458 460.429 70.3394 547.663 124.942 616.843C179.545 686.023 258.237 732.057 345.3 745.75V501.15H256.5V400H345.35V322.9C345.35 235.2 397.6 186.7 477.55 186.7C515.85 186.7 555.9 193.55 555.9 193.55V279.7H511.75C468.25 279.7 454.75 306.7 454.75 334.35V400H551.8L536.3 501.15H454.7V745.75C537.025 732.713 611.997 690.729 666.13 627.348C720.262 563.968 750.002 483.351 750 400Z" fill="white"/>
</svg>
