<svg width="800" height="800" viewBox="0 0 800 800" fill="none" xmlns="http://www.w3.org/2000/svg">
<g clip-path="url(#clip0_1_6)">
<path d="M400 266.667C326.362 266.667 266.667 326.362 266.667 400C266.667 473.638 326.362 533.333 400 533.333C473.638 533.333 533.333 473.638 533.333 400C533.333 326.362 473.638 266.667 400 266.667Z" fill="white"/>
<path fill-rule="evenodd" clip-rule="evenodd" d="M240 0C107.452 0 0 107.452 0 240V560C0 692.549 107.452 800 240 800H560C692.549 800 800 692.549 800 560V240C800 107.452 692.549 0 560 0H240ZM213.333 400C213.333 296.907 296.907 213.333 400 213.333C503.093 213.333 586.667 296.907 586.667 400C586.667 503.093 503.093 586.667 400 586.667C296.907 586.667 213.333 503.093 213.333 400ZM586.667 213.333H640V160H586.667V213.333Z" fill="white"/>
</g>
<defs>
<clipPath id="clip0_1_6">
<rect width="800" height="800" fill="white"/>
</clipPath>
</defs>
</svg>
