<svg width="850" height="478" viewBox="0 0 850 478" fill="none" xmlns="http://www.w3.org/2000/svg">
<path d="M420.06 251.523L385.077 266.553C384.953 266.606 384.818 266.628 384.684 266.617C384.549 266.605 384.42 266.56 384.307 266.486C384.194 266.412 384.102 266.312 384.038 266.194C383.974 266.075 383.941 265.943 383.941 265.809V242.52C383.942 242.36 383.989 242.205 384.078 242.073C384.167 241.94 384.293 241.837 384.44 241.775L442.487 217.411C442.61 217.36 442.744 217.34 442.878 217.352C443.011 217.365 443.139 217.41 443.25 217.483C443.362 217.557 443.453 217.657 443.516 217.774C443.58 217.891 443.613 218.022 443.613 218.155V266.654C443.612 266.773 443.585 266.891 443.534 266.998C443.483 267.106 443.409 267.202 443.318 267.279L407.125 297.146C406.996 297.252 406.902 297.395 406.858 297.556C406.813 297.716 406.819 297.887 406.876 298.044C406.933 298.201 407.037 298.336 407.174 298.432C407.311 298.528 407.475 298.579 407.642 298.579H463.325C463.54 298.577 463.745 298.491 463.897 298.34C464.049 298.188 464.135 297.984 464.138 297.771V253.902C464.136 253.75 464.091 253.601 464.009 253.472C463.927 253.343 463.81 253.24 463.671 253.174C463.533 253.108 463.379 253.082 463.226 253.098C463.074 253.115 462.929 253.174 462.808 253.268L450.547 263.19C450.426 263.285 450.282 263.344 450.129 263.36C449.977 263.377 449.822 263.351 449.684 263.285C449.546 263.219 449.429 263.116 449.346 262.987C449.264 262.858 449.219 262.709 449.217 262.557V233.02C449.219 232.824 449.291 232.635 449.421 232.487L468.81 210.53C468.942 210.38 469.125 210.283 469.325 210.259C469.524 210.236 469.726 210.286 469.89 210.402L484.33 220.415C484.436 220.49 484.522 220.59 484.582 220.705C484.641 220.82 484.672 220.947 484.672 221.077V297.78C484.674 297.995 484.762 298.201 484.915 298.352C485.069 298.503 485.277 298.588 485.493 298.588H500.69C500.843 298.589 500.992 298.633 501.121 298.715C501.249 298.796 501.352 298.912 501.418 299.049C501.483 299.187 501.509 299.339 501.491 299.49C501.474 299.641 501.414 299.783 501.318 299.902L479.289 327.041C479.211 327.133 479.113 327.207 479.003 327.258C478.893 327.309 478.773 327.335 478.652 327.335H402.112C401.973 327.334 401.837 327.298 401.716 327.23C401.594 327.163 401.492 327.066 401.419 326.949L381.541 294.518C380.649 293.065 380.305 291.343 380.57 289.66C380.836 287.977 381.694 286.443 382.99 285.331L420.919 252.883C421.074 252.758 421.178 252.582 421.211 252.386C421.243 252.191 421.203 251.991 421.097 251.823C420.991 251.655 420.827 251.532 420.636 251.477C420.445 251.421 420.24 251.438 420.06 251.523Z" fill="url(#paint0_linear_0_3)"/>
<path d="M604.373 411.678V357.453H615.399C626.609 387.452 628.751 393.132 629.416 395.764H629.499C629.037 389.299 629.01 381.273 629.01 372.388V357.425H637.69V411.65H627.117C615.537 379.703 613.487 373.949 612.785 371.455H612.702C613.099 378.133 613.109 386.122 613.109 395.838V411.65L604.373 411.678Z" fill="black"/>
<path d="M584.77 384.155C584.77 403.985 579.377 412.611 566.883 412.611C555.212 412.611 549.514 404.105 549.514 384.044C549.514 364.473 556.144 356.594 567.327 356.594C579.137 356.594 584.77 365.285 584.77 384.155ZM559.468 383.951C559.468 396.817 561.426 404.465 567.114 404.465C573.098 404.465 574.815 397.381 574.815 383.97C574.815 371.372 572.969 364.805 567.105 364.805C561.241 364.805 559.496 371.871 559.496 383.951H559.468ZM582.027 343.442L570.762 353.094H561.611L570.466 343.442H582.027Z" fill="black"/>
<path d="M529.818 357.453V411.678H520.095V357.453H529.818Z" fill="black"/>
<path d="M502.024 395.894C501.784 398.665 500.74 412.611 485.698 412.611C470.287 412.611 468.514 399.062 468.514 384.496C468.514 366.948 473.666 356.594 486.28 356.594C500.657 356.594 501.775 368.924 501.978 373.265H492.374C492.227 371.418 492.097 364.824 486.114 364.824C480.13 364.824 478.533 372.286 478.533 384.7C478.533 394.924 479.548 404.52 485.846 404.52C491.626 404.52 492.088 397.972 492.31 395.894H502.024Z" fill="black"/>
<path d="M428.207 398.027L425.511 411.678H415.788L428.374 357.453H440.969L453.665 411.678H443.508L440.802 398.027H428.207ZM439.02 389.604C436.998 379.223 435.382 371.64 434.523 366.468H434.302C433.637 371.455 431.919 379.601 429.925 389.604H439.02Z" fill="black"/>
<path d="M367.429 357.453H381.548C395.501 357.453 400.939 366.394 400.939 383.453C400.939 401.768 395.75 411.678 380.828 411.678H367.429V357.453ZM377.226 403.744H380.689C388.28 403.744 390.893 398.036 390.893 383.49C390.893 371.021 388.566 365.525 380.735 365.525H377.19L377.226 403.744Z" fill="black"/>
<path d="M312.746 411.678V357.453H323.771C334.981 387.452 337.133 393.132 337.779 395.764H337.88C337.419 389.299 337.4 381.273 337.4 372.388V357.425H346.08V411.65H335.489C323.909 379.703 321.85 373.949 321.148 371.455H321.075C321.472 378.133 321.481 386.122 321.481 395.838V411.65L312.746 411.678Z" fill="black"/>
<path d="M268.395 357.453V394.767C268.395 399.2 269.503 404.474 275.468 404.474C281.248 404.474 282.486 400.031 282.486 394.822V357.453H292.209V394.97C292.209 404.714 288.405 412.62 275.311 412.62C262.383 412.62 258.69 405.231 258.69 394.97V357.453H268.395Z" fill="black"/>
<path d="M213 357.453H240.924V365.95H222.65V379.897H239.806V388.209H222.65V411.641H213V357.453Z" fill="black"/>
<path d="M557.502 453.952C557.502 466.882 553.983 472.553 545.811 472.553C538.184 472.553 534.472 467.012 534.472 453.878C534.472 441.095 538.794 435.941 546.107 435.941C553.827 435.904 557.502 441.612 557.502 453.952ZM540.973 453.822C540.973 462.227 542.247 467.233 545.968 467.233C549.874 467.233 550.992 462.615 550.992 453.832C550.992 445.602 549.81 441.317 545.959 441.317C542.109 441.317 540.973 445.889 540.973 453.786V453.822Z" fill="black"/>
<path d="M499.946 471.907V436.468H507.149C514.48 456.058 515.884 459.789 516.309 461.525H516.364C516.059 457.268 516.05 452.049 516.05 446.249V436.468H521.72V471.907H514.813C507.241 451.024 505.902 447.265 505.44 445.639H505.394C505.653 450.008 505.653 455.226 505.653 461.572V471.907H499.946Z" fill="black"/>
<path d="M470.97 436.468V460.851C470.97 463.751 471.69 467.196 475.587 467.196C479.484 467.196 480.204 464.296 480.204 460.888V436.468H486.548V460.99C486.548 467.353 484.064 472.516 475.467 472.516C466.87 472.516 464.589 467.658 464.589 460.99V436.468H470.97Z" fill="black"/>
<path d="M450.803 436.468V471.907H444.45V436.468H450.803Z" fill="black"/>
<path d="M419.223 442.028H411.651V436.486H433.138V442.028H425.603V471.907H419.25L419.223 442.028Z" fill="black"/>
<path d="M378.639 471.907V436.468H385.842C393.164 456.058 394.577 459.789 395.002 461.525C394.706 457.268 394.688 452.049 394.688 446.249V436.468H400.358V471.907H393.451C385.888 451.024 384.54 447.265 384.087 445.639H384.05C384.309 450.008 384.318 455.226 384.318 461.572V471.907H378.639Z" fill="black"/>
<path d="M364.52 436.468V471.907H358.195V436.468H364.52Z" fill="black"/>
<path d="M345.065 456.159H333.697V466.448H346.459L345.674 471.907H327.437V436.468H345.6V442.01H333.697V450.627H345.065V456.159Z" fill="black"/>
<path d="M300.077 471.907L291.277 436.468H298.11L301.36 451.504C302.385 456.224 303.364 461.47 303.789 465.164H303.89C304.315 461.572 305.617 456.27 306.605 451.633L309.745 436.468H316.384L307.473 471.907H300.077Z" fill="black"/>
<mask id="mask0_0_3" style="mask-type:luminance" maskUnits="userSpaceOnUse" x="232" y="6" width="337" height="324">
<path d="M387.882 327.639C388.032 327.884 388.082 328.177 388.023 328.458C387.963 328.739 387.799 328.987 387.563 329.151C387.328 329.315 387.038 329.382 386.754 329.34C386.47 329.298 386.213 329.148 386.036 328.923L336.061 274.43C335.297 273.477 334.447 272.596 333.522 271.798C332.629 271.045 331.675 270.368 330.669 269.775L325.599 266.783C318.719 262.739 312.706 257.375 307.907 250.998L306.531 249.151C302.143 243.31 296.915 238.15 291.018 233.837L275.468 222.44C275.468 222.44 242.964 196.053 233.915 191.629C233.478 191.425 233.12 191.083 232.896 190.656C232.673 190.228 232.596 189.739 232.678 189.264L233.269 186.05C234.728 178.116 242.309 172.602 250.647 173.424L253.131 173.674C271.448 175.44 288.943 182.143 303.752 193.069L319.154 204.578C321.131 206.038 323.393 207.067 325.793 207.598L329.487 208.42C331.925 208.959 334.449 208.978 336.894 208.475C339.34 207.972 341.652 206.959 343.679 205.501L348.241 202.204C352.119 199.44 355.4 195.92 357.887 191.858C360.373 187.795 362.014 183.272 362.711 178.559L364.17 168.4C364.885 163.308 364.885 158.141 364.17 153.049L347.955 33.8116C347.631 31.0977 348.368 28.3637 350.011 26.1799C351.654 23.9961 354.076 22.5312 356.773 22.091L360.642 21.3798C363.398 20.8357 366.258 21.3708 368.631 22.8747C371.004 24.3786 372.709 26.7364 373.394 29.4614L396.775 131.178C397.121 132.605 397.942 133.872 399.103 134.77C400.265 135.668 401.697 136.144 403.165 136.12H406.794C408.448 136.142 410.048 135.53 411.264 134.408C412.481 133.286 413.22 131.74 413.331 130.089L418.392 17.0851C418.588 14.0497 419.944 11.2061 422.178 9.14291C424.413 7.07977 427.355 5.9551 430.396 6.00175H434.486C436.06 5.97461 437.624 6.26264 439.084 6.84889C440.545 7.43514 441.874 8.30776 442.992 9.41539C444.111 10.523 444.997 11.8433 445.597 13.2984C446.198 14.7536 446.502 16.3143 446.491 17.8886L443.397 131.963C443.382 132.834 443.674 133.683 444.224 134.359C444.773 135.035 445.543 135.495 446.398 135.658L450.092 136.434C451.071 136.672 452.105 136.515 452.969 135.996C453.833 135.477 454.458 134.639 454.709 133.663L476.095 39.5842C476.78 36.8087 478.47 34.386 480.837 32.7841C483.204 31.1822 486.081 30.515 488.912 30.9115L492.956 31.4195C494.495 31.5774 495.984 32.0523 497.33 32.8144C498.676 33.5765 499.85 34.6091 500.777 35.8473C501.704 37.0855 502.365 38.5024 502.718 40.0087C503.071 41.5149 503.108 43.078 502.827 44.5993L482.512 145.134C482.303 146.185 482.336 147.271 482.607 148.308C482.879 149.345 483.384 150.306 484.082 151.119L487.157 154.74C487.788 155.475 488.572 156.063 489.455 156.462C490.338 156.861 491.297 157.061 492.266 157.049C493.235 157.037 494.189 156.812 495.061 156.391C495.933 155.969 496.703 155.361 497.314 154.61L547.529 92.3591C549.068 90.4989 551.212 89.2398 553.586 88.8024C555.959 88.365 558.411 88.7773 560.512 89.967L563.928 91.8973C565.068 92.5175 566.067 93.3661 566.863 94.3901C567.659 95.414 568.236 96.5913 568.556 97.8483C568.877 99.1053 568.935 100.415 568.727 101.695C568.518 102.976 568.048 104.199 567.345 105.29L512.403 190.058C511.48 191.485 510.776 193.041 510.316 194.676L504.009 216.917L501.008 224.897L469.437 200.772C469.075 200.503 468.653 200.326 468.207 200.256C467.762 200.187 467.306 200.228 466.879 200.375L371.769 234.17C371.241 234.348 370.78 234.685 370.449 235.134C370.119 235.584 369.935 236.124 369.922 236.682L368.999 291.083C368.991 291.536 369.099 291.985 369.313 292.385L387.882 327.639Z" fill="white"/>
</mask>
<g mask="url(#mask0_0_3)">
<path d="M232.65 6.00172H232.512V329.883H232.65V6.00172Z" fill="#F7931E"/>
<path d="M234.164 6.00172H232.65V329.883H234.164V6.00172Z" fill="#F7931E"/>
<path d="M235.688 6.00172H234.174V329.883H235.688V6.00172Z" fill="#F7921E"/>
<path d="M237.202 6.00172H235.688V329.883H237.202V6.00172Z" fill="#F7911E"/>
<path d="M238.717 6.00172H237.202V329.883H238.717V6.00172Z" fill="#F7901E"/>
<path d="M240.231 6.00172H238.717V329.883H240.231V6.00172Z" fill="#F78F1E"/>
<path d="M241.755 6.00172H240.24V329.883H241.755V6.00172Z" fill="#F78E1E"/>
<path d="M243.269 6.00172H241.755V329.883H243.269V6.00172Z" fill="#F68D1E"/>
<path d="M244.783 6.00172H243.269V329.883H244.783V6.00172Z" fill="#F68C1E"/>
<path d="M246.298 6.00172H244.783V329.883H246.298V6.00172Z" fill="#F68B1E"/>
<path d="M247.821 6.00172H246.307V329.883H247.821V6.00172Z" fill="#F68A1E"/>
<path d="M249.336 6.00172H247.821V329.883H249.336V6.00172Z" fill="#F6891F"/>
<path d="M250.85 6.00172H249.336V329.883H250.85V6.00172Z" fill="#F6881F"/>
<path d="M252.374 6.00172H250.859V329.883H252.374V6.00172Z" fill="#F6871F"/>
<path d="M253.888 6.00172H252.374V329.883H253.888V6.00172Z" fill="#F6861F"/>
<path d="M255.402 6.00172H253.888V329.883H255.402V6.00172Z" fill="#F6851F"/>
<path d="M256.917 6.00172H255.402V329.883H256.917V6.00172Z" fill="#F6841F"/>
<path d="M258.44 6.00172H256.926V329.883H258.44V6.00172Z" fill="#F6831F"/>
<path d="M259.955 6.00172H258.44V329.883H259.955V6.00172Z" fill="#F6821F"/>
<path d="M261.469 6.00172H259.955V329.883H261.469V6.00172Z" fill="#F5811F"/>
<path d="M262.984 6.00172H261.469V329.883H262.984V6.00172Z" fill="#F5801F"/>
<path d="M264.507 6.00172H262.993V329.883H264.507V6.00172Z" fill="#F57F1F"/>
<path d="M266.022 6.00172H264.507V329.883H266.022V6.00172Z" fill="#F57E1F"/>
<path d="M267.536 6.00172H266.022V329.883H267.536V6.00172Z" fill="#F57D1F"/>
<path d="M269.05 6.00172H267.536V329.883H269.05V6.00172Z" fill="#F57C1F"/>
<path d="M270.574 6.00172H269.06V329.883H270.574V6.00172Z" fill="#F57B1F"/>
<path d="M272.088 6.00172H270.574V329.883H272.088V6.00172Z" fill="#F57A1F"/>
<path d="M273.603 6.00172H272.088V329.883H273.603V6.00172Z" fill="#F5791F"/>
<path d="M275.117 6.00172H273.603V329.883H275.117V6.00172Z" fill="#F5781F"/>
<path d="M276.641 6.00172H275.126V329.883H276.641V6.00172Z" fill="#F5771F"/>
<path d="M278.155 6.00172H276.641V329.883H278.155V6.00172Z" fill="#F5761F"/>
<path d="M279.669 6.00172H278.155V329.883H279.669V6.00172Z" fill="#F47520"/>
<path d="M281.193 6.00172H279.679V329.883H281.193V6.00172Z" fill="#F47420"/>
<path d="M282.707 6.00172H281.193V329.883H282.707V6.00172Z" fill="#F47320"/>
<path d="M284.222 6.00172H282.707V329.883H284.222V6.00172Z" fill="#F47220"/>
<path d="M285.736 6.00172H284.222V329.883H285.736V6.00172Z" fill="#F47120"/>
<path d="M287.26 6.00172H285.745V329.883H287.26V6.00172Z" fill="#F47020"/>
<path d="M288.774 6.00172H287.26V329.883H288.774V6.00172Z" fill="#F46F20"/>
<path d="M290.288 6.00172H288.774V329.883H290.288V6.00172Z" fill="#F46E20"/>
<path d="M291.803 6.00172H290.288V329.883H291.803V6.00172Z" fill="#F46D20"/>
<path d="M293.326 6.00172H291.812V329.883H293.326V6.00172Z" fill="#F46C20"/>
<path d="M294.841 6.00172H293.326V329.883H294.841V6.00172Z" fill="#F46B20"/>
<path d="M296.355 6.00172H294.841V329.883H296.355V6.00172Z" fill="#F46A20"/>
<path d="M297.87 6.00172H296.355V329.883H297.87V6.00172Z" fill="#F36920"/>
<path d="M299.393 6.00172H297.879V329.883H299.393V6.00172Z" fill="#F36820"/>
<path d="M300.908 6.00172H299.393V329.883H300.908V6.00172Z" fill="#F36720"/>
<path d="M302.422 6.00172H300.908V329.883H302.422V6.00172Z" fill="#F36620"/>
<path d="M303.936 6.00172H302.422V329.883H303.936V6.00172Z" fill="#F36520"/>
<path d="M305.46 6.00172H303.946V329.883H305.46V6.00172Z" fill="#F36420"/>
<path d="M306.974 6.00172H305.46V329.883H306.974V6.00172Z" fill="#F36320"/>
<path d="M308.489 6.00172H306.974V329.883H308.489V6.00172Z" fill="#F36220"/>
<path d="M310.012 6.00172H308.498V329.883H310.012V6.00172Z" fill="#F36121"/>
<path d="M311.527 6.00172H310.012V329.883H311.527V6.00172Z" fill="#F36021"/>
<path d="M313.041 6.00172H311.527V329.883H313.041V6.00172Z" fill="#F35F21"/>
<path d="M314.555 6.00172H313.041V329.883H314.555V6.00172Z" fill="#F35E21"/>
<path d="M316.079 6.00172H314.565V329.883H316.079V6.00172Z" fill="#F25D21"/>
<path d="M317.593 6.00172H316.079V329.883H317.593V6.00172Z" fill="#F25C21"/>
<path d="M319.108 6.00172H317.593V329.883H319.108V6.00172Z" fill="#F25B21"/>
<path d="M320.622 6.00172H319.108V329.883H320.622V6.00172Z" fill="#F25A21"/>
<path d="M322.146 6.00172H320.631V329.883H322.146V6.00172Z" fill="#F25921"/>
<path d="M323.66 6.00172H322.146V329.883H323.66V6.00172Z" fill="#F25721"/>
<path d="M325.174 6.00172H323.66V329.883H325.174V6.00172Z" fill="#F25621"/>
<path d="M326.689 6.00172H325.174V329.883H326.689V6.00172Z" fill="#F25521"/>
<path d="M328.212 6.00172H326.698V329.883H328.212V6.00172Z" fill="#F25421"/>
<path d="M329.727 6.00172H328.212V329.883H329.727V6.00172Z" fill="#F25321"/>
<path d="M331.241 6.00172H329.727V329.883H331.241V6.00172Z" fill="#F25221"/>
<path d="M332.756 6.00172H331.241V329.883H332.756V6.00172Z" fill="#F15121"/>
<path d="M334.279 6.00172H332.765V329.883H334.279V6.00172Z" fill="#F15021"/>
<path d="M335.794 6.00172H334.279V329.883H335.794V6.00172Z" fill="#F14F21"/>
<path d="M337.308 6.00172H335.794V329.883H337.308V6.00172Z" fill="#F14E21"/>
<path d="M338.832 6.00172H337.317V329.883H338.832V6.00172Z" fill="#F14D22"/>
<path d="M340.346 6.00172H338.832V329.883H340.346V6.00172Z" fill="#F14C22"/>
<path d="M341.86 6.00172H340.346V329.883H341.86V6.00172Z" fill="#F14B22"/>
<path d="M343.375 6.00172H341.86V329.883H343.375V6.00172Z" fill="#F14A22"/>
<path d="M344.898 6.00172H343.384V329.883H344.898V6.00172Z" fill="#F14922"/>
<path d="M346.413 6.00172H344.898V329.883H346.413V6.00172Z" fill="#F14822"/>
<path d="M347.927 6.00172H346.413V329.883H347.927V6.00172Z" fill="#F14722"/>
<path d="M349.441 6.00172H347.927V329.883H349.441V6.00172Z" fill="#F14622"/>
<path d="M350.965 6.00172H349.451V329.883H350.965V6.00172Z" fill="#F04522"/>
<path d="M352.479 6.00172H350.965V329.883H352.479V6.00172Z" fill="#F04422"/>
<path d="M353.994 6.00172H352.479V329.883H353.994V6.00172Z" fill="#F04322"/>
<path d="M355.508 6.00172H353.994V329.883H355.508V6.00172Z" fill="#F04222"/>
<path d="M357.032 6.00172H355.517V329.883H357.032V6.00172Z" fill="#F04122"/>
<path d="M358.546 6.00172H357.032V329.883H358.546V6.00172Z" fill="#F04022"/>
<path d="M360.061 6.00172H358.546V329.883H360.061V6.00172Z" fill="#F03F22"/>
<path d="M361.575 6.00172H360.061V329.883H361.575V6.00172Z" fill="#F03E22"/>
<path d="M363.098 6.00172H361.584V329.883H363.098V6.00172Z" fill="#F03D22"/>
<path d="M364.613 6.00172H363.098V329.883H364.613V6.00172Z" fill="#F03C22"/>
<path d="M366.127 6.00172H364.613V329.883H366.127V6.00172Z" fill="#F03B22"/>
<path d="M367.651 6.00172H366.136V329.883H367.651V6.00172Z" fill="#F03A22"/>
<path d="M369.165 6.00172H367.651V329.883H369.165V6.00172Z" fill="#EF3923"/>
<path d="M370.68 6.00172H369.165V329.883H370.68V6.00172Z" fill="#EF3823"/>
<path d="M372.194 6.00172H370.68V329.883H372.194V6.00172Z" fill="#EF3723"/>
<path d="M373.718 6.00172H372.203V329.883H373.718V6.00172Z" fill="#EF3623"/>
<path d="M375.232 6.00172H373.718V329.883H375.232V6.00172Z" fill="#EF3523"/>
<path d="M376.746 6.00172H375.232V329.883H376.746V6.00172Z" fill="#EF3423"/>
<path d="M378.261 6.00172H376.746V329.883H378.261V6.00172Z" fill="#EF3323"/>
<path d="M379.784 6.00172H378.27V329.883H379.784V6.00172Z" fill="#EF3223"/>
<path d="M381.299 6.00172H379.784V329.883H381.299V6.00172Z" fill="#EF3123"/>
<path d="M382.813 6.00172H381.299V329.883H382.813V6.00172Z" fill="#EF3023"/>
<path d="M384.327 6.00172H382.813V329.883H384.327V6.00172Z" fill="#EF2F23"/>
<path d="M385.851 6.00172H384.337V329.883H385.851V6.00172Z" fill="#EF2E23"/>
<path d="M387.365 6.00172H385.851V329.883H387.365V6.00172Z" fill="#EE2D23"/>
<path d="M388.88 6.00172H387.365V329.883H388.88V6.00172Z" fill="#EE2C23"/>
<path d="M390.394 6.00172H388.88V329.883H390.394V6.00172Z" fill="#EE2B23"/>
<path d="M391.918 6.00172H390.403V329.883H391.918V6.00172Z" fill="#EE2A23"/>
<path d="M393.432 6.00172H391.918V329.883H393.432V6.00172Z" fill="#EE2923"/>
<path d="M394.947 6.00172H393.432V329.883H394.947V6.00172Z" fill="#EE2823"/>
<path d="M396.47 6.00172H394.956V329.883H396.47V6.00172Z" fill="#EE2723"/>
<path d="M397.985 6.00172H396.47V329.883H397.985V6.00172Z" fill="#EE2623"/>
<path d="M399.499 6.00172H397.984V329.883H399.499V6.00172Z" fill="#EE2524"/>
<path d="M401.013 6.00172H399.499V329.883H401.013V6.00172Z" fill="#EE2424"/>
<path d="M402.537 6.00172H401.022V329.883H402.537V6.00172Z" fill="#EE2324"/>
<path d="M404.051 6.00172H402.537V329.883H404.051V6.00172Z" fill="#EE2224"/>
<path d="M405.566 6.00172H404.051V329.883H405.566V6.00172Z" fill="#ED2124"/>
<path d="M407.08 6.00172H405.566V329.883H407.08V6.00172Z" fill="#ED2024"/>
<path d="M408.604 6.00172H407.089V329.883H408.604V6.00172Z" fill="#ED1F24"/>
<path d="M410.118 6.00172H408.604V329.883H410.118V6.00172Z" fill="#ED1E24"/>
<path d="M411.632 6.00172H410.118V329.883H411.632V6.00172Z" fill="#ED1D24"/>
<path d="M413.147 6.00172H411.632V329.883H413.147V6.00172Z" fill="#ED1C24"/>
<path d="M413.95 6.00172H413.156V329.883H413.95V6.00172Z" fill="#ED1C24"/>
<path d="M414.744 6.00172H413.95V329.883H414.744V6.00172Z" fill="#EC1D25"/>
<path d="M415.538 6.00172H414.744V329.883H415.538V6.00172Z" fill="#EB1D26"/>
<path d="M416.332 6.00172H415.538V329.883H416.332V6.00172Z" fill="#EA1E27"/>
<path d="M417.127 6.00172H416.332V329.883H417.127V6.00172Z" fill="#E91F28"/>
<path d="M417.921 6.00172H417.127V329.883H417.921V6.00172Z" fill="#E82029"/>
<path d="M418.715 6.00172H417.921V329.883H418.715V6.00172Z" fill="#E7202A"/>
<path d="M419.509 6.00172H418.715V329.883H419.509V6.00172Z" fill="#E6212B"/>
<path d="M420.303 6.00172H419.509V329.883H420.303V6.00172Z" fill="#E5222C"/>
<path d="M421.097 6.00172H420.303V329.883H421.097V6.00172Z" fill="#E4232D"/>
<path d="M421.891 6.00172H421.097V329.883H421.891V6.00172Z" fill="#E3232E"/>
<path d="M422.685 6.00172H421.891V329.883H422.685V6.00172Z" fill="#E2242F"/>
<path d="M423.48 6.00172H422.685V329.883H423.48V6.00172Z" fill="#E12530"/>
<path d="M424.274 6.00172H423.48V329.883H424.274V6.00172Z" fill="#E02631"/>
<path d="M425.068 6.00172H424.274V329.883H425.068V6.00172Z" fill="#DF2632"/>
<path d="M425.862 6.00172H425.068V329.883H425.862V6.00172Z" fill="#DE2733"/>
<path d="M426.656 6.00172H425.862V329.883H426.656V6.00172Z" fill="#DD2834"/>
<path d="M427.45 6.00172H426.656V329.883H427.45V6.00172Z" fill="#DC2835"/>
<path d="M428.244 6.00172H427.45V329.883H428.244V6.00172Z" fill="#DB2936"/>
<path d="M429.038 6.00172H428.244V329.883H429.038V6.00172Z" fill="#DA2A37"/>
<path d="M429.833 6.00172H429.038V329.883H429.833V6.00172Z" fill="#D92B37"/>
<path d="M430.627 6.00172H429.833V329.883H430.627V6.00172Z" fill="#D82B38"/>
<path d="M431.421 6.00172H430.627V329.883H431.421V6.00172Z" fill="#D72C39"/>
<path d="M432.215 6.00172H431.421V329.883H432.215V6.00172Z" fill="#D62D3A"/>
<path d="M433.009 6.00172H432.215V329.883H433.009V6.00172Z" fill="#D52E3B"/>
<path d="M433.812 6.00172H433.018V329.883H433.812V6.00172Z" fill="#D42E3C"/>
<path d="M434.606 6.00172H433.812V329.883H434.606V6.00172Z" fill="#D32F3D"/>
<path d="M435.401 6.00172H434.606V329.883H435.401V6.00172Z" fill="#D2303E"/>
<path d="M436.195 6.00172H435.401V329.883H436.195V6.00172Z" fill="#D1313F"/>
<path d="M436.989 6.00172H436.195V329.883H436.989V6.00172Z" fill="#D03140"/>
<path d="M437.783 6.00172H436.989V329.883H437.783V6.00172Z" fill="#CF3241"/>
<path d="M438.577 6.00172H437.783V329.883H438.577V6.00172Z" fill="#CE3342"/>
<path d="M439.371 6.00172H438.577V329.883H439.371V6.00172Z" fill="#CD3343"/>
<path d="M440.165 6.00172H439.371V329.883H440.165V6.00172Z" fill="#CC3444"/>
<path d="M440.959 6.00172H440.165V329.883H440.959V6.00172Z" fill="#CB3545"/>
<path d="M441.754 6.00172H440.959V329.883H441.754V6.00172Z" fill="#CA3646"/>
<path d="M442.548 6.00172H441.754V329.883H442.548V6.00172Z" fill="#C93647"/>
<path d="M443.342 6.00172H442.548V329.883H443.342V6.00172Z" fill="#C83748"/>
<path d="M444.136 6.00172H443.342V329.883H444.136V6.00172Z" fill="#C73849"/>
<path d="M444.93 6.00172H444.136V329.883H444.93V6.00172Z" fill="#C6394A"/>
<path d="M445.724 6.00172H444.93V329.883H445.724V6.00172Z" fill="#C5394B"/>
<path d="M446.518 6.00172H445.724V329.883H446.518V6.00172Z" fill="#C43A4C"/>
<path d="M447.312 6.00172H446.518V329.883H447.312V6.00172Z" fill="#C33B4D"/>
<path d="M448.107 6.00172H447.312V329.883H448.107V6.00172Z" fill="#C23C4E"/>
<path d="M448.901 6.00172H448.107V329.883H448.901V6.00172Z" fill="#C13C4F"/>
<path d="M449.695 6.00172H448.901V329.883H449.695V6.00172Z" fill="#C03D50"/>
<path d="M450.489 6.00172H449.695V329.883H450.489V6.00172Z" fill="#BF3E51"/>
<path d="M451.283 6.00172H450.489V329.883H451.283V6.00172Z" fill="#BE3E52"/>
<path d="M452.077 6.00172H451.283V329.883H452.077V6.00172Z" fill="#BD3F53"/>
<path d="M452.871 6.00172H452.077V329.883H452.871V6.00172Z" fill="#BC4054"/>
<path d="M453.665 6.00172H452.871V329.883H453.665V6.00172Z" fill="#BB4155"/>
<path d="M454.46 6.00172H453.665V329.883H454.46V6.00172Z" fill="#BA4156"/>
<path d="M455.254 6.00172H454.46V329.883H455.254V6.00172Z" fill="#B94257"/>
<path d="M456.048 6.00172H455.254V329.883H456.048V6.00172Z" fill="#B84358"/>
<path d="M456.842 6.00172H456.048V329.883H456.842V6.00172Z" fill="#B74459"/>
<path d="M457.636 6.00172H456.842V329.883H457.636V6.00172Z" fill="#B6445A"/>
<path d="M458.439 6.00172H457.645V329.883H458.439V6.00172Z" fill="#B5455B"/>
<path d="M459.234 6.00172H458.439V329.883H459.234V6.00172Z" fill="#B4465C"/>
<path d="M460.028 6.00172H459.234V329.883H460.028V6.00172Z" fill="#B3475D"/>
<path d="M460.822 6.00172H460.028V329.883H460.822V6.00172Z" fill="#B2475D"/>
<path d="M461.616 6.00172H460.822V329.883H461.616V6.00172Z" fill="#B1485E"/>
<path d="M462.41 6.00172H461.616V329.883H462.41V6.00172Z" fill="#B0495F"/>
<path d="M463.204 6.00172H462.41V329.883H463.204V6.00172Z" fill="#AF4960"/>
<path d="M463.998 6.00172H463.204V329.883H463.998V6.00172Z" fill="#AE4A61"/>
<path d="M464.792 6.00172H463.998V329.883H464.792V6.00172Z" fill="#AD4B62"/>
<path d="M465.586 6.00172H464.792V329.883H465.586V6.00172Z" fill="#AC4C63"/>
<path d="M466.381 6.00172H465.586V329.883H466.381V6.00172Z" fill="#AB4C64"/>
<path d="M467.175 6.00172H466.381V329.883H467.175V6.00172Z" fill="#AA4D65"/>
<path d="M467.969 6.00172H467.175V329.883H467.969V6.00172Z" fill="#A94E66"/>
<path d="M468.763 6.00172H467.969V329.883H468.763V6.00172Z" fill="#A84F67"/>
<path d="M469.557 6.00172H468.763V329.883H469.557V6.00172Z" fill="#A74F68"/>
<path d="M470.351 6.00172H469.557V329.883H470.351V6.00172Z" fill="#A65069"/>
<path d="M471.145 6.00172H470.351V329.883H471.145V6.00172Z" fill="#A5516A"/>
<path d="M471.939 6.00172H471.145V329.883H471.939V6.00172Z" fill="#A4526B"/>
<path d="M472.734 6.00172H471.939V329.883H472.734V6.00172Z" fill="#A3526C"/>
<path d="M473.528 6.00172H472.734V329.883H473.528V6.00172Z" fill="#A2536D"/>
<path d="M474.322 6.00172H473.528V329.883H474.322V6.00172Z" fill="#A1546E"/>
<path d="M475.116 6.00172H474.322V329.883H475.116V6.00172Z" fill="#A0546F"/>
<path d="M475.91 6.00172H475.116V329.883H475.91V6.00172Z" fill="#9F5570"/>
<path d="M476.704 6.00172H475.91V329.883H476.704V6.00172Z" fill="#9E5671"/>
<path d="M477.498 6.00172H476.704V329.883H477.498V6.00172Z" fill="#9D5772"/>
<path d="M478.292 6.00172H477.498V329.883H478.292V6.00172Z" fill="#9C5773"/>
<path d="M479.087 6.00172H478.292V329.883H479.087V6.00172Z" fill="#9B5874"/>
<path d="M479.881 6.00172H479.087V329.883H479.881V6.00172Z" fill="#9A5975"/>
<path d="M480.675 6.00172H479.881V329.883H480.675V6.00172Z" fill="#995A76"/>
<path d="M481.469 6.00172H480.675V329.883H481.469V6.00172Z" fill="#985A77"/>
<path d="M482.263 6.00172H481.469V329.883H482.263V6.00172Z" fill="#975B78"/>
<path d="M483.066 6.00172H482.272V329.883H483.066V6.00172Z" fill="#965C79"/>
<path d="M483.861 6.00172H483.066V329.883H483.861V6.00172Z" fill="#955D7A"/>
<path d="M484.655 6.00172H483.861V329.883H484.655V6.00172Z" fill="#945D7B"/>
<path d="M485.449 6.00172H484.655V329.883H485.449V6.00172Z" fill="#935E7C"/>
<path d="M486.243 6.00172H485.449V329.883H486.243V6.00172Z" fill="#925F7D"/>
<path d="M487.037 6.00172H486.243V329.883H487.037V6.00172Z" fill="#915F7E"/>
<path d="M487.831 6.00172H487.037V329.883H487.831V6.00172Z" fill="#90607F"/>
<path d="M488.625 6.00172H487.831V329.883H488.625V6.00172Z" fill="#8F6180"/>
<path d="M489.419 6.00172H488.625V329.883H489.419V6.00172Z" fill="#8E6281"/>
<path d="M490.214 6.00172H489.419V329.883H490.214V6.00172Z" fill="#8D6282"/>
<path d="M491.008 6.00172H490.214V329.883H491.008V6.00172Z" fill="#8C6383"/>
<path d="M491.802 6.00172H491.008V329.883H491.802V6.00172Z" fill="#8A6483"/>
<path d="M492.596 6.00172H491.802V329.883H492.596V6.00172Z" fill="#896584"/>
<path d="M493.39 6.00172H492.596V329.883H493.39V6.00172Z" fill="#886585"/>
<path d="M494.184 6.00172H493.39V329.883H494.184V6.00172Z" fill="#876686"/>
<path d="M494.978 6.00172H494.184V329.883H494.978V6.00172Z" fill="#866787"/>
<path d="M495.772 6.00172H494.978V329.883H495.772V6.00172Z" fill="#856888"/>
<path d="M496.567 6.00172H495.772V329.883H496.567V6.00172Z" fill="#846889"/>
<path d="M497.361 6.00172H496.566V329.883H497.361V6.00172Z" fill="#83698A"/>
<path d="M498.155 6.00172H497.361V329.883H498.155V6.00172Z" fill="#826A8B"/>
<path d="M498.949 6.00172H498.155V329.883H498.949V6.00172Z" fill="#816A8C"/>
<path d="M499.743 6.00172H498.949V329.883H499.743V6.00172Z" fill="#806B8D"/>
<path d="M500.537 6.00172H499.743V329.883H500.537V6.00172Z" fill="#7F6C8E"/>
<path d="M501.331 6.00172H500.537V329.883H501.331V6.00172Z" fill="#7E6D8F"/>
<path d="M502.125 6.00172H501.331V329.883H502.125V6.00172Z" fill="#7D6D90"/>
<path d="M502.92 6.00172H502.125V329.883H502.92V6.00172Z" fill="#7C6E91"/>
<path d="M503.714 6.00172H502.92V329.883H503.714V6.00172Z" fill="#7B6F92"/>
<path d="M504.508 6.00172H503.714V329.883H504.508V6.00172Z" fill="#7A7093"/>
<path d="M505.302 6.00172H504.508V329.883H505.302V6.00172Z" fill="#797094"/>
<path d="M506.096 6.00172H505.302V329.883H506.096V6.00172Z" fill="#787195"/>
<path d="M506.899 6.00172H506.105V329.883H506.899V6.00172Z" fill="#777296"/>
<path d="M507.694 6.00172H506.899V329.883H507.694V6.00172Z" fill="#767397"/>
<path d="M508.488 6.00172H507.694V329.883H508.488V6.00172Z" fill="#757398"/>
<path d="M509.282 6.00172H508.488V329.883H509.282V6.00172Z" fill="#747499"/>
<path d="M510.076 6.00172H509.282V329.883H510.076V6.00172Z" fill="#73759A"/>
<path d="M510.87 6.00172H510.076V329.883H510.87V6.00172Z" fill="#72759B"/>
<path d="M511.664 6.00172H510.87V329.883H511.664V6.00172Z" fill="#71769C"/>
<path d="M512.458 6.00172H511.664V329.883H512.458V6.00172Z" fill="#70779D"/>
<path d="M513.252 6.00172H512.458V329.883H513.252V6.00172Z" fill="#6F789E"/>
<path d="M514.046 6.00172H513.252V329.883H514.046V6.00172Z" fill="#6E789F"/>
<path d="M514.841 6.00172H514.047V329.883H514.841V6.00172Z" fill="#6D79A0"/>
<path d="M515.635 6.00172H514.841V329.883H515.635V6.00172Z" fill="#6C7AA1"/>
<path d="M516.429 6.00172H515.635V329.883H516.429V6.00172Z" fill="#6B7BA2"/>
<path d="M517.223 6.00172H516.429V329.883H517.223V6.00172Z" fill="#6A7BA3"/>
<path d="M518.017 6.00172H517.223V329.883H518.017V6.00172Z" fill="#697CA4"/>
<path d="M518.811 6.00172H518.017V329.883H518.811V6.00172Z" fill="#687DA5"/>
<path d="M519.605 6.00172H518.811V329.883H519.605V6.00172Z" fill="#677EA6"/>
<path d="M520.399 6.00172H519.605V329.883H520.399V6.00172Z" fill="#667EA7"/>
<path d="M521.194 6.00172H520.399V329.883H521.194V6.00172Z" fill="#657FA8"/>
<path d="M521.988 6.00172H521.194V329.883H521.988V6.00172Z" fill="#6480A9"/>
<path d="M522.782 6.00172H521.988V329.883H522.782V6.00172Z" fill="#6380A9"/>
<path d="M523.576 6.00172H522.782V329.883H523.576V6.00172Z" fill="#6281AA"/>
<path d="M524.37 6.00172H523.576V329.883H524.37V6.00172Z" fill="#6182AB"/>
<path d="M525.164 6.00172H524.37V329.883H525.164V6.00172Z" fill="#6083AC"/>
<path d="M525.958 6.00172H525.164V329.883H525.958V6.00172Z" fill="#5F83AD"/>
<path d="M526.752 6.00172H525.958V329.883H526.752V6.00172Z" fill="#5E84AE"/>
<path d="M527.547 6.00172H526.752V329.883H527.547V6.00172Z" fill="#5D85AF"/>
<path d="M528.341 6.00172H527.547V329.883H528.341V6.00172Z" fill="#5C86B0"/>
<path d="M529.135 6.00172H528.341V329.883H529.135V6.00172Z" fill="#5B86B1"/>
<path d="M529.929 6.00172H529.135V329.883H529.929V6.00172Z" fill="#5A87B2"/>
<path d="M530.723 6.00172H529.929V329.883H530.723V6.00172Z" fill="#5988B3"/>
<path d="M531.526 6.00172H530.732V329.883H531.526V6.00172Z" fill="#5889B4"/>
<path d="M532.321 6.00172H531.526V329.883H532.321V6.00172Z" fill="#5789B5"/>
<path d="M533.115 6.00172H532.321V329.883H533.115V6.00172Z" fill="#568AB6"/>
<path d="M533.909 6.00172H533.115V329.883H533.909V6.00172Z" fill="#558BB7"/>
<path d="M534.703 6.00172H533.909V329.883H534.703V6.00172Z" fill="#548BB8"/>
<path d="M535.497 6.00172H534.703V329.883H535.497V6.00172Z" fill="#538CB9"/>
<path d="M536.291 6.00172H535.497V329.883H536.291V6.00172Z" fill="#528DBA"/>
<path d="M537.085 6.00172H536.291V329.883H537.085V6.00172Z" fill="#518EBB"/>
<path d="M537.879 6.00172H537.085V329.883H537.879V6.00172Z" fill="#508EBC"/>
<path d="M538.674 6.00172H537.879V329.883H538.674V6.00172Z" fill="#4F8FBD"/>
<path d="M539.468 6.00172H538.674V329.883H539.468V6.00172Z" fill="#4E90BE"/>
<path d="M540.262 6.00172H539.468V329.883H540.262V6.00172Z" fill="#4D91BF"/>
<path d="M541.056 6.00172H540.262V329.883H541.056V6.00172Z" fill="#4C91C0"/>
<path d="M541.85 6.00172H541.056V329.883H541.85V6.00172Z" fill="#4B92C1"/>
<path d="M542.644 6.00172H541.85V329.883H542.644V6.00172Z" fill="#4A93C2"/>
<path d="M543.438 6.00172H542.644V329.883H543.438V6.00172Z" fill="#4994C3"/>
<path d="M544.232 6.00172H543.438V329.883H544.232V6.00172Z" fill="#4894C4"/>
<path d="M545.027 6.00172H544.232V329.883H545.027V6.00172Z" fill="#4795C5"/>
<path d="M545.821 6.00172H545.027V329.883H545.821V6.00172Z" fill="#4696C6"/>
<path d="M546.615 6.00172H545.821V329.883H546.615V6.00172Z" fill="#4596C7"/>
<path d="M547.409 6.00172H546.615V329.883H547.409V6.00172Z" fill="#4497C8"/>
<path d="M548.203 6.00172H547.409V329.883H548.203V6.00172Z" fill="#4398C9"/>
<path d="M548.997 6.00172H548.203V329.883H548.997V6.00172Z" fill="#4299CA"/>
<path d="M549.791 6.00172H548.997V329.883H549.791V6.00172Z" fill="#4199CB"/>
<path d="M550.585 6.00172H549.791V329.883H550.585V6.00172Z" fill="#409ACC"/>
<path d="M551.38 6.00172H550.585V329.883H551.38V6.00172Z" fill="#3F9BCD"/>
<path d="M552.174 6.00172H551.38V329.883H552.174V6.00172Z" fill="#3E9CCE"/>
<path d="M552.968 6.00172H552.174V329.883H552.968V6.00172Z" fill="#3D9CCF"/>
<path d="M553.762 6.00172H552.968V329.883H553.762V6.00172Z" fill="#3C9DCF"/>
<path d="M554.556 6.00172H553.762V329.883H554.556V6.00172Z" fill="#3B9ED0"/>
<path d="M555.35 6.00172H554.556V329.883H555.35V6.00172Z" fill="#3A9FD1"/>
<path d="M556.153 6.00172H555.359V329.883H556.153V6.00172Z" fill="#399FD2"/>
<path d="M556.948 6.00172H556.154V329.883H556.948V6.00172Z" fill="#38A0D3"/>
<path d="M557.742 6.00172H556.948V329.883H557.742V6.00172Z" fill="#37A1D4"/>
<path d="M558.536 6.00172H557.742V329.883H558.536V6.00172Z" fill="#36A1D5"/>
<path d="M559.33 6.00172H558.536V329.883H559.33V6.00172Z" fill="#35A2D6"/>
<path d="M560.124 6.00172H559.33V329.883H560.124V6.00172Z" fill="#34A3D7"/>
<path d="M560.918 6.00172H560.124V329.883H560.918V6.00172Z" fill="#33A4D8"/>
<path d="M561.712 6.00172H560.918V329.883H561.712V6.00172Z" fill="#32A4D9"/>
<path d="M562.507 6.00172H561.712V329.883H562.507V6.00172Z" fill="#31A5DA"/>
<path d="M563.301 6.00172H562.507V329.883H563.301V6.00172Z" fill="#30A6DB"/>
<path d="M564.095 6.00172H563.301V329.883H564.095V6.00172Z" fill="#2FA7DC"/>
<path d="M564.889 6.00172H564.095V329.883H564.889V6.00172Z" fill="#2EA7DD"/>
<path d="M565.683 6.00172H564.889V329.883H565.683V6.00172Z" fill="#2DA8DE"/>
<path d="M566.477 6.00172H565.683V329.883H566.477V6.00172Z" fill="#2CA9DF"/>
<path d="M567.271 6.00172H566.477V329.883H567.271V6.00172Z" fill="#2BAAE0"/>
<path d="M568.065 6.00172H567.271V329.883H568.065V6.00172Z" fill="#2AAAE1"/>
<path d="M568.859 6.00172H568.065V329.883H568.859V6.00172Z" fill="#29ABE2"/>
</g>
<defs>
<linearGradient id="paint0_linear_0_3" x1="382.28" y1="265.065" x2="503.288" y2="273.601" gradientUnits="userSpaceOnUse">
<stop stop-color="#F7931E"/>
<stop offset="0.54" stop-color="#ED1C24"/>
<stop offset="1" stop-color="#29ABE2"/>
</linearGradient>
</defs>
</svg>
