<svg width="390" height="350" viewBox="0 0 390 350" fill="none" xmlns="http://www.w3.org/2000/svg">
<g id="LOGOTIPO_NUEVO 1 1">
<path id="21" d="M191.126 182.935L166.265 193.589C166.177 193.627 166.081 193.643 165.986 193.635C165.89 193.626 165.798 193.594 165.718 193.542C165.637 193.49 165.572 193.419 165.526 193.335C165.481 193.251 165.458 193.157 165.458 193.062V176.552C165.458 176.439 165.492 176.329 165.555 176.235C165.618 176.141 165.708 176.068 165.812 176.024L207.064 158.752C207.151 158.716 207.247 158.702 207.342 158.711C207.436 158.72 207.527 158.752 207.606 158.803C207.686 158.856 207.751 158.927 207.795 159.01C207.841 159.093 207.864 159.185 207.864 159.28V193.661C207.864 193.745 207.844 193.829 207.808 193.905C207.772 193.982 207.719 194.05 207.655 194.104L181.934 215.277C181.842 215.352 181.775 215.454 181.744 215.568C181.712 215.681 181.716 215.802 181.757 215.914C181.797 216.025 181.871 216.121 181.968 216.189C182.066 216.257 182.182 216.293 182.301 216.293H221.873C222.026 216.292 222.171 216.231 222.279 216.124C222.387 216.016 222.449 215.871 222.451 215.72V184.621C222.449 184.513 222.417 184.408 222.359 184.316C222.301 184.225 222.218 184.152 222.119 184.105C222.021 184.058 221.911 184.04 221.803 184.051C221.694 184.063 221.591 184.105 221.505 184.172L212.792 191.205C212.706 191.273 212.604 191.315 212.495 191.326C212.387 191.338 212.277 191.32 212.179 191.273C212.081 191.226 211.997 191.153 211.939 191.062C211.88 190.97 211.848 190.864 211.847 190.757V169.818C211.848 169.679 211.899 169.545 211.992 169.44L225.771 153.874C225.865 153.768 225.995 153.699 226.137 153.682C226.278 153.666 226.422 153.701 226.538 153.784L236.8 160.882C236.876 160.935 236.937 161.006 236.979 161.087C237.021 161.169 237.043 161.259 237.043 161.351V215.727C237.045 215.879 237.107 216.025 237.216 216.132C237.326 216.239 237.473 216.299 237.627 216.299H248.427C248.536 216.3 248.641 216.331 248.733 216.389C248.824 216.447 248.897 216.529 248.944 216.626C248.99 216.724 249.009 216.832 248.996 216.939C248.984 217.046 248.941 217.147 248.873 217.231L233.218 236.47C233.162 236.535 233.093 236.588 233.015 236.624C232.936 236.66 232.851 236.678 232.765 236.678H178.371C178.272 236.678 178.176 236.652 178.09 236.604C178.003 236.556 177.93 236.488 177.879 236.405L163.752 213.414C163.118 212.384 162.874 211.163 163.062 209.97C163.251 208.777 163.861 207.69 164.782 206.901L191.736 183.899C191.847 183.81 191.921 183.685 191.944 183.546C191.967 183.408 191.938 183.266 191.863 183.147C191.788 183.028 191.671 182.941 191.535 182.902C191.4 182.862 191.254 182.874 191.126 182.935Z" fill="url(#paint0_linear_1_342)"/>
<g id="fundacion">
<path id="Vector" d="M321.179 296.274V258.009H328.96C336.87 279.178 338.382 283.187 338.851 285.044H338.91C338.584 280.482 338.565 274.818 338.565 268.548V257.989H344.69V296.254H337.229C329.057 273.71 327.611 269.65 327.115 267.89H327.057C327.337 272.602 327.344 278.24 327.344 285.096V296.254L321.179 296.274Z" fill="white"/>
<path id="Vector_2" d="M307.346 276.852C307.346 290.845 303.54 296.932 294.724 296.932C286.488 296.932 282.467 290.93 282.467 276.773C282.467 262.963 287.146 257.403 295.037 257.403C303.371 257.403 307.346 263.536 307.346 276.852ZM289.491 276.708C289.491 285.787 290.873 291.184 294.887 291.184C299.11 291.184 300.321 286.185 300.321 276.721C300.321 267.831 299.018 263.197 294.88 263.197C290.742 263.197 289.511 268.183 289.511 276.708H289.491ZM305.41 248.122L297.461 254.933H291.004L297.252 248.122H305.41Z" fill="white"/>
<path id="Vector_3" d="M268.568 258.009V296.274H261.707V258.009H268.568Z" fill="white"/>
<path id="Vector_4" d="M248.955 285.136C248.786 287.091 248.049 296.932 237.434 296.932C226.559 296.932 225.308 287.371 225.308 277.092C225.308 264.709 228.944 257.403 237.845 257.403C247.99 257.403 248.779 266.104 248.922 269.167H242.145C242.041 267.864 241.95 263.21 237.728 263.21C233.505 263.21 232.378 268.476 232.378 277.236C232.378 284.451 233.094 291.223 237.539 291.223C241.617 291.223 241.943 286.602 242.1 285.136H248.955Z" fill="white"/>
<path id="Vector_5" d="M196.865 286.641L194.962 296.274H188.101L196.982 258.009H205.87L214.83 296.274H207.662L205.753 286.641H196.865ZM204.495 280.697C203.068 273.371 201.928 268.02 201.322 264.371H201.166C200.696 267.89 199.484 273.638 198.077 280.697H204.495Z" fill="white"/>
<path id="Vector_6" d="M153.976 258.009H163.939C173.785 258.009 177.622 264.318 177.622 276.356C177.622 289.281 173.961 296.274 163.431 296.274H153.976V258.009ZM160.889 290.675H163.333C168.689 290.675 170.533 286.647 170.533 276.382C170.533 267.583 168.891 263.705 163.365 263.705H160.864L160.889 290.675Z" fill="white"/>
<path id="Vector_7" d="M115.388 296.274V258.009H123.168C131.078 279.178 132.597 283.187 133.052 285.044H133.124C132.798 280.482 132.785 274.818 132.785 268.548V257.989H138.91V296.254H131.437C123.265 273.71 121.812 269.65 121.317 267.89H121.265C121.545 272.602 121.552 278.24 121.552 285.096V296.254L115.388 296.274Z" fill="white"/>
<path id="Vector_8" d="M84.0905 258.009V284.34C84.0905 287.469 84.8723 291.19 89.0816 291.19C93.1604 291.19 94.034 288.055 94.034 284.379V258.009H100.895V284.484C100.895 291.36 98.2109 296.939 88.9709 296.939C79.848 296.939 77.242 291.724 77.242 284.484V258.009H84.0905Z" fill="white"/>
<path id="Vector_9" d="M45 258.009H64.7051V264.005H51.8097V273.847H63.9161V279.713H51.8097V296.248H45V258.009Z" fill="white"/>
</g>
<g id="veintiuno">
<path id="Vector_10" d="M288.104 326.105C288.104 335.23 285.621 339.231 279.854 339.231C274.472 339.231 271.852 335.321 271.852 326.053C271.852 317.032 274.902 313.395 280.063 313.395C285.511 313.369 288.104 317.397 288.104 326.105ZM276.44 326.013C276.44 331.945 277.339 335.477 279.965 335.477C282.721 335.477 283.51 332.218 283.51 326.021C283.51 320.213 282.676 317.189 279.958 317.189C277.242 317.189 276.44 320.415 276.44 325.988V326.013Z" fill="white"/>
<path id="Vector_11" d="M247.489 338.775V313.767H252.571C257.745 327.591 258.735 330.224 259.035 331.449H259.074C258.859 328.445 258.853 324.762 258.853 320.669V313.767H262.854V338.775H257.98C252.636 324.039 251.691 321.386 251.365 320.239H251.333C251.516 323.322 251.516 327.004 251.516 331.482V338.775H247.489Z" fill="white"/>
<path id="Vector_12" d="M227.041 313.767V330.974C227.041 333.02 227.549 335.451 230.299 335.451C233.049 335.451 233.557 333.405 233.557 331V313.767H238.034V331.072C238.034 335.562 236.281 339.205 230.214 339.205C224.148 339.205 222.538 335.777 222.538 331.072V313.767H227.041Z" fill="white"/>
<path id="Vector_13" d="M212.81 313.767V338.775H208.327V313.767H212.81Z" fill="white"/>
<path id="Vector_14" d="M190.525 317.691H185.182V313.78H200.344V317.691H195.027V338.775H190.544L190.525 317.691Z" fill="white"/>
<path id="Vector_15" d="M161.886 338.775V313.767H166.969C172.136 327.591 173.133 330.224 173.433 331.449C173.224 328.445 173.211 324.762 173.211 320.669V313.767H177.212V338.775H172.338C167.001 324.039 166.05 321.386 165.731 320.239H165.704C165.887 323.322 165.894 327.004 165.894 331.482V338.775H161.886Z" fill="white"/>
<path id="Vector_16" d="M151.923 313.767V338.775H147.459V313.767H151.923Z" fill="white"/>
<path id="Vector_17" d="M138.194 327.663H130.172V334.923H139.178L138.624 338.775H125.755V313.767H138.572V317.678H130.172V323.759H138.194V327.663Z" fill="white"/>
<path id="Vector_18" d="M106.447 338.775L100.238 313.767H105.059L107.353 324.378C108.076 327.708 108.767 331.41 109.067 334.017H109.138C109.438 331.482 110.357 327.741 111.054 324.469L113.27 313.767H117.955L111.667 338.775H106.447Z" fill="white"/>
</g>
<g id="mano">
<mask id="mask0_1_342" style="mask-type:luminance" maskUnits="userSpaceOnUse" x="58" y="10" width="239" height="229">
<g id="colormano">
<path id="Vector_19" d="M168.409 236.97C168.514 237.143 168.55 237.35 168.508 237.548C168.466 237.746 168.35 237.921 168.183 238.037C168.018 238.153 167.813 238.2 167.613 238.171C167.412 238.141 167.231 238.035 167.106 237.876L131.84 199.422C131.301 198.75 130.701 198.128 130.048 197.565C129.418 197.034 128.745 196.556 128.035 196.137L124.457 194.026C119.602 191.172 115.359 187.387 111.973 182.887L111.002 181.584C107.905 177.462 104.216 173.821 100.055 170.777L89.0816 162.735C89.0816 162.735 66.1446 144.114 59.759 140.992C59.4507 140.848 59.198 140.607 59.04 140.306C58.8826 140.004 58.8283 139.659 58.8861 139.323L59.3032 137.055C60.3327 131.457 65.6824 127.566 71.5663 128.146L73.3192 128.322C86.2449 129.568 98.5905 134.298 109.041 142.009L119.909 150.13C121.305 151.16 122.901 151.886 124.594 152.261L127.201 152.841C128.922 153.222 130.703 153.235 132.428 152.88C134.154 152.525 135.786 151.81 137.216 150.781L140.435 148.455C143.172 146.504 145.487 144.02 147.242 141.154C148.996 138.287 150.154 135.095 150.646 131.769L151.676 124.6C152.18 121.007 152.18 117.361 151.676 113.768L140.233 29.6257C140.005 27.7106 140.525 25.7813 141.684 24.2403C142.844 22.6993 144.553 21.6655 146.456 21.3549L149.186 20.853C151.131 20.4691 153.149 20.8467 154.824 21.9079C156.498 22.9692 157.701 24.633 158.185 26.556L174.684 98.3341C174.928 99.3411 175.508 100.235 176.327 100.869C177.147 101.503 178.157 101.838 179.193 101.821H181.754C182.921 101.837 184.05 101.405 184.909 100.613C185.767 99.8216 186.289 98.7307 186.367 97.5656L189.938 17.8224C190.077 15.6804 191.034 13.6738 192.61 12.2179C194.187 10.762 196.263 9.96832 198.409 10.0012H201.296C202.406 9.98209 203.51 10.1853 204.54 10.599C205.571 11.0127 206.509 11.6285 207.298 12.4101C208.088 13.1917 208.713 14.1234 209.136 15.1502C209.56 16.1771 209.775 17.2785 209.767 18.3894L207.584 98.888C207.573 99.5027 207.779 100.102 208.167 100.579C208.555 101.056 209.098 101.38 209.701 101.495L212.308 102.043C212.999 102.211 213.729 102.1 214.338 101.734C214.948 101.368 215.389 100.776 215.566 100.088L230.658 33.6993C231.141 31.7407 232.334 30.0311 234.004 28.9007C235.674 27.7703 237.704 27.2994 239.702 27.5792L242.556 27.9377C243.642 28.0491 244.693 28.3843 245.642 28.9221C246.592 29.4598 247.421 30.1885 248.075 31.0623C248.729 31.936 249.196 32.9359 249.445 33.9988C249.694 35.0617 249.72 36.1647 249.522 37.2383L235.186 108.182C235.038 108.924 235.062 109.69 235.253 110.422C235.445 111.154 235.801 111.832 236.294 112.406L238.464 114.961C238.909 115.48 239.462 115.895 240.085 116.176C240.708 116.458 241.385 116.599 242.069 116.59C242.753 116.582 243.426 116.423 244.041 116.126C244.657 115.828 245.2 115.399 245.631 114.869L281.066 70.9408C282.152 69.6281 283.665 68.7396 285.341 68.431C287.015 68.1223 288.745 68.4133 290.228 69.2528L292.639 70.615C293.443 71.0526 294.148 71.6514 294.71 72.374C295.271 73.0966 295.679 73.9274 295.904 74.8144C296.131 75.7014 296.172 76.6256 296.025 77.5289C295.878 78.4328 295.546 79.2959 295.05 80.0657L256.279 139.884C255.628 140.891 255.131 141.989 254.806 143.143L250.356 158.837L248.238 164.469L225.959 147.444C225.704 147.254 225.406 147.13 225.091 147.08C224.777 147.031 224.456 147.06 224.154 147.164L157.038 171.012C156.666 171.138 156.34 171.376 156.107 171.692C155.874 172.01 155.744 172.391 155.735 172.785L155.083 211.174C155.078 211.494 155.154 211.81 155.305 212.093L168.409 236.97Z" fill="white"/>
</g>
</mask>
<g mask="url(#mask0_1_342)">
<g id="siluetamano">
<path id="Vector_20" d="M58.8664 10.0012H58.769V238.554H58.8664V10.0012Z" fill="#F7931E"/>
<path id="Vector_21" d="M59.9347 10.0012H58.8664V238.554H59.9347V10.0012Z" fill="#F7931E"/>
<path id="Vector_22" d="M61.0102 10.0012H59.9418V238.554H61.0102V10.0012Z" fill="#F7921E"/>
<path id="Vector_23" d="M62.0786 10.0012H61.0102V238.554H62.0786V10.0012Z" fill="#F7911E"/>
<path id="Vector_24" d="M63.1477 10.0012H62.0786V238.554H63.1477V10.0012Z" fill="#F7901E"/>
<path id="Vector_25" d="M64.216 10.0012H63.1477V238.554H64.216V10.0012Z" fill="#F78F1E"/>
<path id="Vector_26" d="M65.2915 10.0012H64.2224V238.554H65.2915V10.0012Z" fill="#F78E1E"/>
<path id="Vector_27" d="M66.3598 10.0012H65.2915V238.554H66.3598V10.0012Z" fill="#F68D1E"/>
<path id="Vector_28" d="M67.4282 10.0012H66.3598V238.554H67.4282V10.0012Z" fill="#F68C1E"/>
<path id="Vector_29" d="M68.4973 10.0012H67.4282V238.554H68.4973V10.0012Z" fill="#F68B1E"/>
<path id="Vector_30" d="M69.5721 10.0012H68.5037V238.554H69.5721V10.0012Z" fill="#F68A1E"/>
<path id="Vector_31" d="M70.6411 10.0012H69.5721V238.554H70.6411V10.0012Z" fill="#F6891F"/>
<path id="Vector_32" d="M71.7095 10.0012H70.6411V238.554H71.7095V10.0012Z" fill="#F6881F"/>
<path id="Vector_33" d="M72.785 10.0012H71.7159V238.554H72.785V10.0012Z" fill="#F6871F"/>
<path id="Vector_34" d="M73.8533 10.0012H72.785V238.554H73.8533V10.0012Z" fill="#F6861F"/>
<path id="Vector_35" d="M74.9217 10.0012H73.8533V238.554H74.9217V10.0012Z" fill="#F6851F"/>
<path id="Vector_36" d="M75.9908 10.0012H74.9217V238.554H75.9908V10.0012Z" fill="#F6841F"/>
<path id="Vector_37" d="M77.0655 10.0012H75.9972V238.554H77.0655V10.0012Z" fill="#F6831F"/>
<path id="Vector_38" d="M78.1346 10.0012H77.0655V238.554H78.1346V10.0012Z" fill="#F6821F"/>
<path id="Vector_39" d="M79.203 10.0012H78.1346V238.554H79.203V10.0012Z" fill="#F5811F"/>
<path id="Vector_40" d="M80.2721 10.0012H79.203V238.554H80.2721V10.0012Z" fill="#F5801F"/>
<path id="Vector_41" d="M81.3468 10.0012H80.2785V238.554H81.3468V10.0012Z" fill="#F57F1F"/>
<path id="Vector_42" d="M82.4159 10.0012H81.3468V238.554H82.4159V10.0012Z" fill="#F57E1F"/>
<path id="Vector_43" d="M83.4843 10.0012H82.4159V238.554H83.4843V10.0012Z" fill="#F57D1F"/>
<path id="Vector_44" d="M84.5527 10.0012H83.4843V238.554H84.5527V10.0012Z" fill="#F57C1F"/>
<path id="Vector_45" d="M85.6281 10.0012H84.5597V238.554H85.6281V10.0012Z" fill="#F57B1F"/>
<path id="Vector_46" d="M86.6965 10.0012H85.6281V238.554H86.6965V10.0012Z" fill="#F57A1F"/>
<path id="Vector_47" d="M87.7656 10.0012H86.6965V238.554H87.7656V10.0012Z" fill="#F5791F"/>
<path id="Vector_48" d="M88.834 10.0012H87.7656V238.554H88.834V10.0012Z" fill="#F5781F"/>
<path id="Vector_49" d="M89.9094 10.0012H88.8403V238.554H89.9094V10.0012Z" fill="#F5771F"/>
<path id="Vector_50" d="M90.9778 10.0012H89.9094V238.554H90.9778V10.0012Z" fill="#F5761F"/>
<path id="Vector_51" d="M92.0462 10.0012H90.9778V238.554H92.0462V10.0012Z" fill="#F47520"/>
<path id="Vector_52" d="M93.1216 10.0012H92.0532V238.554H93.1216V10.0012Z" fill="#F47420"/>
<path id="Vector_53" d="M94.19 10.0012H93.1216V238.554H94.19V10.0012Z" fill="#F47320"/>
<path id="Vector_54" d="M95.259 10.0012H94.19V238.554H95.259V10.0012Z" fill="#F47220"/>
<path id="Vector_55" d="M96.3274 10.0012H95.259V238.554H96.3274V10.0012Z" fill="#F47120"/>
<path id="Vector_56" d="M97.4029 10.0012H96.3338V238.554H97.4029V10.0012Z" fill="#F47020"/>
<path id="Vector_57" d="M98.4713 10.0012H97.4029V238.554H98.4713V10.0012Z" fill="#F46F20"/>
<path id="Vector_58" d="M99.5396 10.0012H98.4713V238.554H99.5396V10.0012Z" fill="#F46E20"/>
<path id="Vector_59" d="M100.609 10.0012H99.5396V238.554H100.609V10.0012Z" fill="#F46D20"/>
<path id="Vector_60" d="M101.683 10.0012H100.615V238.554H101.683V10.0012Z" fill="#F46C20"/>
<path id="Vector_61" d="M102.753 10.0012H101.683V238.554H102.753V10.0012Z" fill="#F46B20"/>
<path id="Vector_62" d="M103.821 10.0012H102.753V238.554H103.821V10.0012Z" fill="#F46A20"/>
<path id="Vector_63" d="M104.89 10.0012H103.821V238.554H104.89V10.0012Z" fill="#F36920"/>
<path id="Vector_64" d="M105.965 10.0012H104.896V238.554H105.965V10.0012Z" fill="#F36820"/>
<path id="Vector_65" d="M107.034 10.0012H105.965V238.554H107.034V10.0012Z" fill="#F36720"/>
<path id="Vector_66" d="M108.102 10.0012H107.034V238.554H108.102V10.0012Z" fill="#F36620"/>
<path id="Vector_67" d="M109.171 10.0012H108.102V238.554H109.171V10.0012Z" fill="#F36520"/>
<path id="Vector_68" d="M110.246 10.0012H109.178V238.554H110.246V10.0012Z" fill="#F36420"/>
<path id="Vector_69" d="M111.314 10.0012H110.246V238.554H111.314V10.0012Z" fill="#F36320"/>
<path id="Vector_70" d="M112.384 10.0012H111.314V238.554H112.384V10.0012Z" fill="#F36220"/>
<path id="Vector_71" d="M113.458 10.0012H112.39V238.554H113.458V10.0012Z" fill="#F36121"/>
<path id="Vector_72" d="M114.527 10.0012H113.458V238.554H114.527V10.0012Z" fill="#F36021"/>
<path id="Vector_73" d="M115.596 10.0012H114.527V238.554H115.596V10.0012Z" fill="#F35F21"/>
<path id="Vector_74" d="M116.664 10.0012H115.596V238.554H116.664V10.0012Z" fill="#F35E21"/>
<path id="Vector_75" d="M117.74 10.0012H116.671V238.554H117.74V10.0012Z" fill="#F25D21"/>
<path id="Vector_76" d="M118.808 10.0012H117.74V238.554H118.808V10.0012Z" fill="#F25C21"/>
<path id="Vector_77" d="M119.877 10.0012H118.808V238.554H119.877V10.0012Z" fill="#F25B21"/>
<path id="Vector_78" d="M120.945 10.0012H119.877V238.554H120.945V10.0012Z" fill="#F25A21"/>
<path id="Vector_79" d="M122.021 10.0012H120.952V238.554H122.021V10.0012Z" fill="#F25921"/>
<path id="Vector_80" d="M123.089 10.0012H122.021V238.554H123.089V10.0012Z" fill="#F25721"/>
<path id="Vector_81" d="M124.158 10.0012H123.089V238.554H124.158V10.0012Z" fill="#F25621"/>
<path id="Vector_82" d="M125.227 10.0012H124.158V238.554H125.227V10.0012Z" fill="#F25521"/>
<path id="Vector_83" d="M126.301 10.0012H125.233V238.554H126.301V10.0012Z" fill="#F25421"/>
<path id="Vector_84" d="M127.37 10.0012H126.301V238.554H127.37V10.0012Z" fill="#F25321"/>
<path id="Vector_85" d="M128.439 10.0012H127.37V238.554H128.439V10.0012Z" fill="#F25221"/>
<path id="Vector_86" d="M129.508 10.0012H128.439V238.554H129.508V10.0012Z" fill="#F15121"/>
<path id="Vector_87" d="M130.583 10.0012H129.514V238.554H130.583V10.0012Z" fill="#F15021"/>
<path id="Vector_88" d="M131.652 10.0012H130.583V238.554H131.652V10.0012Z" fill="#F14F21"/>
<path id="Vector_89" d="M132.72 10.0012H131.652V238.554H132.72V10.0012Z" fill="#F14E21"/>
<path id="Vector_90" d="M133.796 10.0012H132.726V238.554H133.796V10.0012Z" fill="#F14D22"/>
<path id="Vector_91" d="M134.864 10.0012H133.796V238.554H134.864V10.0012Z" fill="#F14C22"/>
<path id="Vector_92" d="M135.932 10.0012H134.864V238.554H135.932V10.0012Z" fill="#F14B22"/>
<path id="Vector_93" d="M137.001 10.0012H135.932V238.554H137.001V10.0012Z" fill="#F14A22"/>
<path id="Vector_94" d="M138.076 10.0012H137.008V238.554H138.076V10.0012Z" fill="#F14922"/>
<path id="Vector_95" d="M139.145 10.0012H138.076V238.554H139.145V10.0012Z" fill="#F14822"/>
<path id="Vector_96" d="M140.214 10.0012H139.145V238.554H140.214V10.0012Z" fill="#F14722"/>
<path id="Vector_97" d="M141.282 10.0012H140.214V238.554H141.282V10.0012Z" fill="#F14622"/>
<path id="Vector_98" d="M142.357 10.0012H141.289V238.554H142.357V10.0012Z" fill="#F04522"/>
<path id="Vector_99" d="M143.426 10.0012H142.357V238.554H143.426V10.0012Z" fill="#F04422"/>
<path id="Vector_100" d="M144.495 10.0012H143.426V238.554H144.495V10.0012Z" fill="#F04322"/>
<path id="Vector_101" d="M145.563 10.0012H144.495V238.554H145.563V10.0012Z" fill="#F04222"/>
<path id="Vector_102" d="M146.639 10.0012H145.57V238.554H146.639V10.0012Z" fill="#F04122"/>
<path id="Vector_103" d="M147.707 10.0012H146.639V238.554H147.707V10.0012Z" fill="#F04022"/>
<path id="Vector_104" d="M148.776 10.0012H147.707V238.554H148.776V10.0012Z" fill="#F03F22"/>
<path id="Vector_105" d="M149.845 10.0012H148.776V238.554H149.845V10.0012Z" fill="#F03E22"/>
<path id="Vector_106" d="M150.919 10.0012H149.851V238.554H150.919V10.0012Z" fill="#F03D22"/>
<path id="Vector_107" d="M151.988 10.0012H150.919V238.554H151.988V10.0012Z" fill="#F03C22"/>
<path id="Vector_108" d="M153.057 10.0012H151.988V238.554H153.057V10.0012Z" fill="#F03B22"/>
<path id="Vector_109" d="M154.132 10.0012H153.063V238.554H154.132V10.0012Z" fill="#F03A22"/>
<path id="Vector_110" d="M155.201 10.0012H154.132V238.554H155.201V10.0012Z" fill="#EF3923"/>
<path id="Vector_111" d="M156.27 10.0012H155.201V238.554H156.27V10.0012Z" fill="#EF3823"/>
<path id="Vector_112" d="M157.338 10.0012H156.27V238.554H157.338V10.0012Z" fill="#EF3723"/>
<path id="Vector_113" d="M158.413 10.0012H157.344V238.554H158.413V10.0012Z" fill="#EF3623"/>
<path id="Vector_114" d="M159.482 10.0012H158.413V238.554H159.482V10.0012Z" fill="#EF3523"/>
<path id="Vector_115" d="M160.55 10.0012H159.482V238.554H160.55V10.0012Z" fill="#EF3423"/>
<path id="Vector_116" d="M161.619 10.0012H160.55V238.554H161.619V10.0012Z" fill="#EF3323"/>
<path id="Vector_117" d="M162.694 10.0012H161.626V238.554H162.694V10.0012Z" fill="#EF3223"/>
<path id="Vector_118" d="M163.763 10.0012H162.694V238.554H163.763V10.0012Z" fill="#EF3123"/>
<path id="Vector_119" d="M164.832 10.0012H163.763V238.554H164.832V10.0012Z" fill="#EF3023"/>
<path id="Vector_120" d="M165.9 10.0012H164.832V238.554H165.9V10.0012Z" fill="#EF2F23"/>
<path id="Vector_121" d="M166.975 10.0012H165.907V238.554H166.975V10.0012Z" fill="#EF2E23"/>
<path id="Vector_122" d="M168.044 10.0012H166.975V238.554H168.044V10.0012Z" fill="#EE2D23"/>
<path id="Vector_123" d="M169.113 10.0012H168.044V238.554H169.113V10.0012Z" fill="#EE2C23"/>
<path id="Vector_124" d="M170.181 10.0012H169.113V238.554H170.181V10.0012Z" fill="#EE2B23"/>
<path id="Vector_125" d="M171.257 10.0012H170.188V238.554H171.257V10.0012Z" fill="#EE2A23"/>
<path id="Vector_126" d="M172.325 10.0012H171.257V238.554H172.325V10.0012Z" fill="#EE2923"/>
<path id="Vector_127" d="M173.394 10.0012H172.325V238.554H173.394V10.0012Z" fill="#EE2823"/>
<path id="Vector_128" d="M174.469 10.0012H173.4V238.554H174.469V10.0012Z" fill="#EE2723"/>
<path id="Vector_129" d="M175.538 10.0012H174.469V238.554H175.538V10.0012Z" fill="#EE2623"/>
<path id="Vector_130" d="M176.606 10.0012H175.537V238.554H176.606V10.0012Z" fill="#EE2524"/>
<path id="Vector_131" d="M177.675 10.0012H176.606V238.554H177.675V10.0012Z" fill="#EE2424"/>
<path id="Vector_132" d="M178.75 10.0012H177.681V238.554H178.75V10.0012Z" fill="#EE2324"/>
<path id="Vector_133" d="M179.819 10.0012H178.75V238.554H179.819V10.0012Z" fill="#EE2224"/>
<path id="Vector_134" d="M180.888 10.0012H179.819V238.554H180.888V10.0012Z" fill="#ED2124"/>
<path id="Vector_135" d="M181.956 10.0012H180.888V238.554H181.956V10.0012Z" fill="#ED2024"/>
<path id="Vector_136" d="M183.031 10.0012H181.962V238.554H183.031V10.0012Z" fill="#ED1F24"/>
<path id="Vector_137" d="M184.1 10.0012H183.031V238.554H184.1V10.0012Z" fill="#ED1E24"/>
<path id="Vector_138" d="M185.168 10.0012H184.1V238.554H185.168V10.0012Z" fill="#ED1D24"/>
<path id="Vector_139" d="M186.237 10.0012H185.168V238.554H186.237V10.0012Z" fill="#ED1C24"/>
<path id="Vector_140" d="M186.804 10.0012H186.244V238.554H186.804V10.0012Z" fill="#ED1C24"/>
<path id="Vector_141" d="M187.364 10.0012H186.804V238.554H187.364V10.0012Z" fill="#EC1D25"/>
<path id="Vector_142" d="M187.925 10.0012H187.364V238.554H187.925V10.0012Z" fill="#EB1D26"/>
<path id="Vector_143" d="M188.485 10.0012H187.925V238.554H188.485V10.0012Z" fill="#EA1E27"/>
<path id="Vector_144" d="M189.046 10.0012H188.485V238.554H189.046V10.0012Z" fill="#E91F28"/>
<path id="Vector_145" d="M189.606 10.0012H189.046V238.554H189.606V10.0012Z" fill="#E82029"/>
<path id="Vector_146" d="M190.166 10.0012H189.606V238.554H190.166V10.0012Z" fill="#E7202A"/>
<path id="Vector_147" d="M190.727 10.0012H190.166V238.554H190.727V10.0012Z" fill="#E6212B"/>
<path id="Vector_148" d="M191.287 10.0012H190.727V238.554H191.287V10.0012Z" fill="#E5222C"/>
<path id="Vector_149" d="M191.847 10.0012H191.287V238.554H191.847V10.0012Z" fill="#E4232D"/>
<path id="Vector_150" d="M192.408 10.0012H191.847V238.554H192.408V10.0012Z" fill="#E3232E"/>
<path id="Vector_151" d="M192.968 10.0012H192.408V238.554H192.968V10.0012Z" fill="#E2242F"/>
<path id="Vector_152" d="M193.529 10.0012H192.968V238.554H193.529V10.0012Z" fill="#E12530"/>
<path id="Vector_153" d="M194.089 10.0012H193.529V238.554H194.089V10.0012Z" fill="#E02631"/>
<path id="Vector_154" d="M194.65 10.0012H194.089V238.554H194.65V10.0012Z" fill="#DF2632"/>
<path id="Vector_155" d="M195.21 10.0012H194.65V238.554H195.21V10.0012Z" fill="#DE2733"/>
<path id="Vector_156" d="M195.77 10.0012H195.21V238.554H195.77V10.0012Z" fill="#DD2834"/>
<path id="Vector_157" d="M196.33 10.0012H195.77V238.554H196.33V10.0012Z" fill="#DC2835"/>
<path id="Vector_158" d="M196.891 10.0012H196.33V238.554H196.891V10.0012Z" fill="#DB2936"/>
<path id="Vector_159" d="M197.451 10.0012H196.891V238.554H197.451V10.0012Z" fill="#DA2A37"/>
<path id="Vector_160" d="M198.012 10.0012H197.451V238.554H198.012V10.0012Z" fill="#D92B37"/>
<path id="Vector_161" d="M198.572 10.0012H198.012V238.554H198.572V10.0012Z" fill="#D82B38"/>
<path id="Vector_162" d="M199.133 10.0012H198.572V238.554H199.133V10.0012Z" fill="#D72C39"/>
<path id="Vector_163" d="M199.693 10.0012H199.133V238.554H199.693V10.0012Z" fill="#D62D3A"/>
<path id="Vector_164" d="M200.253 10.0012H199.693V238.554H200.253V10.0012Z" fill="#D52E3B"/>
<path id="Vector_165" d="M200.82 10.0012H200.26V238.554H200.82V10.0012Z" fill="#D42E3C"/>
<path id="Vector_166" d="M201.38 10.0012H200.82V238.554H201.38V10.0012Z" fill="#D32F3D"/>
<path id="Vector_167" d="M201.941 10.0012H201.38V238.554H201.941V10.0012Z" fill="#D2303E"/>
<path id="Vector_168" d="M202.501 10.0012H201.941V238.554H202.501V10.0012Z" fill="#D1313F"/>
<path id="Vector_169" d="M203.062 10.0012H202.501V238.554H203.062V10.0012Z" fill="#D03140"/>
<path id="Vector_170" d="M203.622 10.0012H203.062V238.554H203.622V10.0012Z" fill="#CF3241"/>
<path id="Vector_171" d="M204.182 10.0012H203.622V238.554H204.182V10.0012Z" fill="#CE3342"/>
<path id="Vector_172" d="M204.743 10.0012H204.182V238.554H204.743V10.0012Z" fill="#CD3343"/>
<path id="Vector_173" d="M205.303 10.0012H204.743V238.554H205.303V10.0012Z" fill="#CC3444"/>
<path id="Vector_174" d="M205.863 10.0012H205.303V238.554H205.863V10.0012Z" fill="#CB3545"/>
<path id="Vector_175" d="M206.424 10.0012H205.863V238.554H206.424V10.0012Z" fill="#CA3646"/>
<path id="Vector_176" d="M206.985 10.0012H206.424V238.554H206.985V10.0012Z" fill="#C93647"/>
<path id="Vector_177" d="M207.545 10.0012H206.985V238.554H207.545V10.0012Z" fill="#C83748"/>
<path id="Vector_178" d="M208.105 10.0012H207.545V238.554H208.105V10.0012Z" fill="#C73849"/>
<path id="Vector_179" d="M208.665 10.0012H208.105V238.554H208.665V10.0012Z" fill="#C6394A"/>
<path id="Vector_180" d="M209.226 10.0012H208.665V238.554H209.226V10.0012Z" fill="#C5394B"/>
<path id="Vector_181" d="M209.786 10.0012H209.226V238.554H209.786V10.0012Z" fill="#C43A4C"/>
<path id="Vector_182" d="M210.346 10.0012H209.786V238.554H210.346V10.0012Z" fill="#C33B4D"/>
<path id="Vector_183" d="M210.907 10.0012H210.346V238.554H210.907V10.0012Z" fill="#C23C4E"/>
<path id="Vector_184" d="M211.468 10.0012H210.907V238.554H211.468V10.0012Z" fill="#C13C4F"/>
<path id="Vector_185" d="M212.028 10.0012H211.468V238.554H212.028V10.0012Z" fill="#C03D50"/>
<path id="Vector_186" d="M212.588 10.0012H212.028V238.554H212.588V10.0012Z" fill="#BF3E51"/>
<path id="Vector_187" d="M213.149 10.0012H212.588V238.554H213.149V10.0012Z" fill="#BE3E52"/>
<path id="Vector_188" d="M213.709 10.0012H213.149V238.554H213.709V10.0012Z" fill="#BD3F53"/>
<path id="Vector_189" d="M214.269 10.0012H213.709V238.554H214.269V10.0012Z" fill="#BC4054"/>
<path id="Vector_190" d="M214.83 10.0012H214.269V238.554H214.83V10.0012Z" fill="#BB4155"/>
<path id="Vector_191" d="M215.391 10.0012H214.83V238.554H215.391V10.0012Z" fill="#BA4156"/>
<path id="Vector_192" d="M215.951 10.0012H215.391V238.554H215.951V10.0012Z" fill="#B94257"/>
<path id="Vector_193" d="M216.511 10.0012H215.951V238.554H216.511V10.0012Z" fill="#B84358"/>
<path id="Vector_194" d="M217.071 10.0012H216.511V238.554H217.071V10.0012Z" fill="#B74459"/>
<path id="Vector_195" d="M217.632 10.0012H217.071V238.554H217.632V10.0012Z" fill="#B6445A"/>
<path id="Vector_196" d="M218.198 10.0012H217.638V238.554H218.198V10.0012Z" fill="#B5455B"/>
<path id="Vector_197" d="M218.759 10.0012H218.198V238.554H218.759V10.0012Z" fill="#B4465C"/>
<path id="Vector_198" d="M219.32 10.0012H218.759V238.554H219.32V10.0012Z" fill="#B3475D"/>
<path id="Vector_199" d="M219.88 10.0012H219.32V238.554H219.88V10.0012Z" fill="#B2475D"/>
<path id="Vector_200" d="M220.44 10.0012H219.88V238.554H220.44V10.0012Z" fill="#B1485E"/>
<path id="Vector_201" d="M221.001 10.0012H220.44V238.554H221.001V10.0012Z" fill="#B0495F"/>
<path id="Vector_202" d="M221.561 10.0012H221.001V238.554H221.561V10.0012Z" fill="#AF4960"/>
<path id="Vector_203" d="M222.121 10.0012H221.561V238.554H222.121V10.0012Z" fill="#AE4A61"/>
<path id="Vector_204" d="M222.681 10.0012H222.121V238.554H222.681V10.0012Z" fill="#AD4B62"/>
<path id="Vector_205" d="M223.242 10.0012H222.681V238.554H223.242V10.0012Z" fill="#AC4C63"/>
<path id="Vector_206" d="M223.803 10.0012H223.242V238.554H223.803V10.0012Z" fill="#AB4C64"/>
<path id="Vector_207" d="M224.363 10.0012H223.803V238.554H224.363V10.0012Z" fill="#AA4D65"/>
<path id="Vector_208" d="M224.923 10.0012H224.363V238.554H224.923V10.0012Z" fill="#A94E66"/>
<path id="Vector_209" d="M225.484 10.0012H224.923V238.554H225.484V10.0012Z" fill="#A84F67"/>
<path id="Vector_210" d="M226.044 10.0012H225.484V238.554H226.044V10.0012Z" fill="#A74F68"/>
<path id="Vector_211" d="M226.604 10.0012H226.044V238.554H226.604V10.0012Z" fill="#A65069"/>
<path id="Vector_212" d="M227.165 10.0012H226.604V238.554H227.165V10.0012Z" fill="#A5516A"/>
<path id="Vector_213" d="M227.725 10.0012H227.165V238.554H227.725V10.0012Z" fill="#A4526B"/>
<path id="Vector_214" d="M228.286 10.0012H227.725V238.554H228.286V10.0012Z" fill="#A3526C"/>
<path id="Vector_215" d="M228.846 10.0012H228.286V238.554H228.846V10.0012Z" fill="#A2536D"/>
<path id="Vector_216" d="M229.406 10.0012H228.846V238.554H229.406V10.0012Z" fill="#A1546E"/>
<path id="Vector_217" d="M229.967 10.0012H229.406V238.554H229.967V10.0012Z" fill="#A0546F"/>
<path id="Vector_218" d="M230.527 10.0012H229.967V238.554H230.527V10.0012Z" fill="#9F5570"/>
<path id="Vector_219" d="M231.087 10.0012H230.527V238.554H231.087V10.0012Z" fill="#9E5671"/>
<path id="Vector_220" d="M231.648 10.0012H231.087V238.554H231.648V10.0012Z" fill="#9D5772"/>
<path id="Vector_221" d="M232.208 10.0012H231.648V238.554H232.208V10.0012Z" fill="#9C5773"/>
<path id="Vector_222" d="M232.769 10.0012H232.208V238.554H232.769V10.0012Z" fill="#9B5874"/>
<path id="Vector_223" d="M233.329 10.0012H232.769V238.554H233.329V10.0012Z" fill="#9A5975"/>
<path id="Vector_224" d="M233.89 10.0012H233.329V238.554H233.89V10.0012Z" fill="#995A76"/>
<path id="Vector_225" d="M234.45 10.0012H233.89V238.554H234.45V10.0012Z" fill="#985A77"/>
<path id="Vector_226" d="M235.01 10.0012H234.45V238.554H235.01V10.0012Z" fill="#975B78"/>
<path id="Vector_227" d="M235.577 10.0012H235.017V238.554H235.577V10.0012Z" fill="#965C79"/>
<path id="Vector_228" d="M236.138 10.0012H235.577V238.554H236.138V10.0012Z" fill="#955D7A"/>
<path id="Vector_229" d="M236.698 10.0012H236.138V238.554H236.698V10.0012Z" fill="#945D7B"/>
<path id="Vector_230" d="M237.258 10.0012H236.698V238.554H237.258V10.0012Z" fill="#935E7C"/>
<path id="Vector_231" d="M237.819 10.0012H237.258V238.554H237.819V10.0012Z" fill="#925F7D"/>
<path id="Vector_232" d="M238.379 10.0012H237.819V238.554H238.379V10.0012Z" fill="#915F7E"/>
<path id="Vector_233" d="M238.939 10.0012H238.379V238.554H238.939V10.0012Z" fill="#90607F"/>
<path id="Vector_234" d="M239.5 10.0012H238.939V238.554H239.5V10.0012Z" fill="#8F6180"/>
<path id="Vector_235" d="M240.06 10.0012H239.5V238.554H240.06V10.0012Z" fill="#8E6281"/>
<path id="Vector_236" d="M240.621 10.0012H240.06V238.554H240.621V10.0012Z" fill="#8D6282"/>
<path id="Vector_237" d="M241.181 10.0012H240.621V238.554H241.181V10.0012Z" fill="#8C6383"/>
<path id="Vector_238" d="M241.742 10.0012H241.181V238.554H241.742V10.0012Z" fill="#8A6483"/>
<path id="Vector_239" d="M242.302 10.0012H241.742V238.554H242.302V10.0012Z" fill="#896584"/>
<path id="Vector_240" d="M242.862 10.0012H242.302V238.554H242.862V10.0012Z" fill="#886585"/>
<path id="Vector_241" d="M243.422 10.0012H242.862V238.554H243.422V10.0012Z" fill="#876686"/>
<path id="Vector_242" d="M243.983 10.0012H243.422V238.554H243.983V10.0012Z" fill="#866787"/>
<path id="Vector_243" d="M244.543 10.0012H243.983V238.554H244.543V10.0012Z" fill="#856888"/>
<path id="Vector_244" d="M245.104 10.0012H244.543V238.554H245.104V10.0012Z" fill="#846889"/>
<path id="Vector_245" d="M245.664 10.0012H245.103V238.554H245.664V10.0012Z" fill="#83698A"/>
<path id="Vector_246" d="M246.225 10.0012H245.664V238.554H246.225V10.0012Z" fill="#826A8B"/>
<path id="Vector_247" d="M246.785 10.0012H246.225V238.554H246.785V10.0012Z" fill="#816A8C"/>
<path id="Vector_248" d="M247.345 10.0012H246.785V238.554H247.345V10.0012Z" fill="#806B8D"/>
<path id="Vector_249" d="M247.906 10.0012H247.345V238.554H247.906V10.0012Z" fill="#7F6C8E"/>
<path id="Vector_250" d="M248.466 10.0012H247.906V238.554H248.466V10.0012Z" fill="#7E6D8F"/>
<path id="Vector_251" d="M249.026 10.0012H248.466V238.554H249.026V10.0012Z" fill="#7D6D90"/>
<path id="Vector_252" d="M249.587 10.0012H249.026V238.554H249.587V10.0012Z" fill="#7C6E91"/>
<path id="Vector_253" d="M250.147 10.0012H249.587V238.554H250.147V10.0012Z" fill="#7B6F92"/>
<path id="Vector_254" d="M250.708 10.0012H250.147V238.554H250.708V10.0012Z" fill="#7A7093"/>
<path id="Vector_255" d="M251.268 10.0012H250.708V238.554H251.268V10.0012Z" fill="#797094"/>
<path id="Vector_256" d="M251.828 10.0012H251.268V238.554H251.828V10.0012Z" fill="#787195"/>
<path id="Vector_257" d="M252.395 10.0012H251.835V238.554H252.395V10.0012Z" fill="#777296"/>
<path id="Vector_258" d="M252.956 10.0012H252.395V238.554H252.956V10.0012Z" fill="#767397"/>
<path id="Vector_259" d="M253.516 10.0012H252.956V238.554H253.516V10.0012Z" fill="#757398"/>
<path id="Vector_260" d="M254.077 10.0012H253.516V238.554H254.077V10.0012Z" fill="#747499"/>
<path id="Vector_261" d="M254.637 10.0012H254.077V238.554H254.637V10.0012Z" fill="#73759A"/>
<path id="Vector_262" d="M255.197 10.0012H254.637V238.554H255.197V10.0012Z" fill="#72759B"/>
<path id="Vector_263" d="M255.758 10.0012H255.197V238.554H255.758V10.0012Z" fill="#71769C"/>
<path id="Vector_264" d="M256.318 10.0012H255.758V238.554H256.318V10.0012Z" fill="#70779D"/>
<path id="Vector_265" d="M256.878 10.0012H256.318V238.554H256.878V10.0012Z" fill="#6F789E"/>
<path id="Vector_266" d="M257.438 10.0012H256.878V238.554H257.438V10.0012Z" fill="#6E789F"/>
<path id="Vector_267" d="M257.999 10.0012H257.439V238.554H257.999V10.0012Z" fill="#6D79A0"/>
<path id="Vector_268" d="M258.56 10.0012H257.999V238.554H258.56V10.0012Z" fill="#6C7AA1"/>
<path id="Vector_269" d="M259.12 10.0012H258.56V238.554H259.12V10.0012Z" fill="#6B7BA2"/>
<path id="Vector_270" d="M259.68 10.0012H259.12V238.554H259.68V10.0012Z" fill="#6A7BA3"/>
<path id="Vector_271" d="M260.241 10.0012H259.68V238.554H260.241V10.0012Z" fill="#697CA4"/>
<path id="Vector_272" d="M260.801 10.0012H260.241V238.554H260.801V10.0012Z" fill="#687DA5"/>
<path id="Vector_273" d="M261.361 10.0012H260.801V238.554H261.361V10.0012Z" fill="#677EA6"/>
<path id="Vector_274" d="M261.922 10.0012H261.361V238.554H261.922V10.0012Z" fill="#667EA7"/>
<path id="Vector_275" d="M262.483 10.0012H261.922V238.554H262.483V10.0012Z" fill="#657FA8"/>
<path id="Vector_276" d="M263.043 10.0012H262.483V238.554H263.043V10.0012Z" fill="#6480A9"/>
<path id="Vector_277" d="M263.603 10.0012H263.043V238.554H263.603V10.0012Z" fill="#6380A9"/>
<path id="Vector_278" d="M264.163 10.0012H263.603V238.554H264.163V10.0012Z" fill="#6281AA"/>
<path id="Vector_279" d="M264.724 10.0012H264.163V238.554H264.724V10.0012Z" fill="#6182AB"/>
<path id="Vector_280" d="M265.284 10.0012H264.724V238.554H265.284V10.0012Z" fill="#6083AC"/>
<path id="Vector_281" d="M265.844 10.0012H265.284V238.554H265.844V10.0012Z" fill="#5F83AD"/>
<path id="Vector_282" d="M266.405 10.0012H265.844V238.554H266.405V10.0012Z" fill="#5E84AE"/>
<path id="Vector_283" d="M266.966 10.0012H266.405V238.554H266.966V10.0012Z" fill="#5D85AF"/>
<path id="Vector_284" d="M267.526 10.0012H266.966V238.554H267.526V10.0012Z" fill="#5C86B0"/>
<path id="Vector_285" d="M268.086 10.0012H267.526V238.554H268.086V10.0012Z" fill="#5B86B1"/>
<path id="Vector_286" d="M268.647 10.0012H268.086V238.554H268.647V10.0012Z" fill="#5A87B2"/>
<path id="Vector_287" d="M269.207 10.0012H268.647V238.554H269.207V10.0012Z" fill="#5988B3"/>
<path id="Vector_288" d="M269.774 10.0012H269.213V238.554H269.774V10.0012Z" fill="#5889B4"/>
<path id="Vector_289" d="M270.334 10.0012H269.773V238.554H270.334V10.0012Z" fill="#5789B5"/>
<path id="Vector_290" d="M270.895 10.0012H270.334V238.554H270.895V10.0012Z" fill="#568AB6"/>
<path id="Vector_291" d="M271.455 10.0012H270.895V238.554H271.455V10.0012Z" fill="#558BB7"/>
<path id="Vector_292" d="M272.015 10.0012H271.455V238.554H272.015V10.0012Z" fill="#548BB8"/>
<path id="Vector_293" d="M272.576 10.0012H272.015V238.554H272.576V10.0012Z" fill="#538CB9"/>
<path id="Vector_294" d="M273.136 10.0012H272.576V238.554H273.136V10.0012Z" fill="#528DBA"/>
<path id="Vector_295" d="M273.696 10.0012H273.136V238.554H273.696V10.0012Z" fill="#518EBB"/>
<path id="Vector_296" d="M274.257 10.0012H273.696V238.554H274.257V10.0012Z" fill="#508EBC"/>
<path id="Vector_297" d="M274.818 10.0012H274.257V238.554H274.818V10.0012Z" fill="#4F8FBD"/>
<path id="Vector_298" d="M275.378 10.0012H274.818V238.554H275.378V10.0012Z" fill="#4E90BE"/>
<path id="Vector_299" d="M275.938 10.0012H275.378V238.554H275.938V10.0012Z" fill="#4D91BF"/>
<path id="Vector_300" d="M276.499 10.0012H275.938V238.554H276.499V10.0012Z" fill="#4C91C0"/>
<path id="Vector_301" d="M277.059 10.0012H276.499V238.554H277.059V10.0012Z" fill="#4B92C1"/>
<path id="Vector_302" d="M277.619 10.0012H277.059V238.554H277.619V10.0012Z" fill="#4A93C2"/>
<path id="Vector_303" d="M278.179 10.0012H277.619V238.554H278.179V10.0012Z" fill="#4994C3"/>
<path id="Vector_304" d="M278.74 10.0012H278.179V238.554H278.74V10.0012Z" fill="#4894C4"/>
<path id="Vector_305" d="M279.301 10.0012H278.74V238.554H279.301V10.0012Z" fill="#4795C5"/>
<path id="Vector_306" d="M279.861 10.0012H279.301V238.554H279.861V10.0012Z" fill="#4696C6"/>
<path id="Vector_307" d="M280.421 10.0012H279.861V238.554H280.421V10.0012Z" fill="#4596C7"/>
<path id="Vector_308" d="M280.982 10.0012H280.421V238.554H280.982V10.0012Z" fill="#4497C8"/>
<path id="Vector_309" d="M281.542 10.0012H280.982V238.554H281.542V10.0012Z" fill="#4398C9"/>
<path id="Vector_310" d="M282.102 10.0012H281.542V238.554H282.102V10.0012Z" fill="#4299CA"/>
<path id="Vector_311" d="M282.663 10.0012H282.102V238.554H282.663V10.0012Z" fill="#4199CB"/>
<path id="Vector_312" d="M283.223 10.0012H282.663V238.554H283.223V10.0012Z" fill="#409ACC"/>
<path id="Vector_313" d="M283.784 10.0012H283.223V238.554H283.784V10.0012Z" fill="#3F9BCD"/>
<path id="Vector_314" d="M284.344 10.0012H283.784V238.554H284.344V10.0012Z" fill="#3E9CCE"/>
<path id="Vector_315" d="M284.904 10.0012H284.344V238.554H284.904V10.0012Z" fill="#3D9CCF"/>
<path id="Vector_316" d="M285.465 10.0012H284.904V238.554H285.465V10.0012Z" fill="#3C9DCF"/>
<path id="Vector_317" d="M286.025 10.0012H285.465V238.554H286.025V10.0012Z" fill="#3B9ED0"/>
<path id="Vector_318" d="M286.585 10.0012H286.025V238.554H286.585V10.0012Z" fill="#3A9FD1"/>
<path id="Vector_319" d="M287.152 10.0012H286.592V238.554H287.152V10.0012Z" fill="#399FD2"/>
<path id="Vector_320" d="M287.713 10.0012H287.153V238.554H287.713V10.0012Z" fill="#38A0D3"/>
<path id="Vector_321" d="M288.273 10.0012H287.713V238.554H288.273V10.0012Z" fill="#37A1D4"/>
<path id="Vector_322" d="M288.834 10.0012H288.273V238.554H288.834V10.0012Z" fill="#36A1D5"/>
<path id="Vector_323" d="M289.394 10.0012H288.834V238.554H289.394V10.0012Z" fill="#35A2D6"/>
<path id="Vector_324" d="M289.954 10.0012H289.394V238.554H289.954V10.0012Z" fill="#34A3D7"/>
<path id="Vector_325" d="M290.514 10.0012H289.954V238.554H290.514V10.0012Z" fill="#33A4D8"/>
<path id="Vector_326" d="M291.075 10.0012H290.515V238.554H291.075V10.0012Z" fill="#32A4D9"/>
<path id="Vector_327" d="M291.636 10.0012H291.075V238.554H291.636V10.0012Z" fill="#31A5DA"/>
<path id="Vector_328" d="M292.196 10.0012H291.636V238.554H292.196V10.0012Z" fill="#30A6DB"/>
<path id="Vector_329" d="M292.756 10.0012H292.196V238.554H292.756V10.0012Z" fill="#2FA7DC"/>
<path id="Vector_330" d="M293.317 10.0012H292.756V238.554H293.317V10.0012Z" fill="#2EA7DD"/>
<path id="Vector_331" d="M293.877 10.0012H293.317V238.554H293.877V10.0012Z" fill="#2DA8DE"/>
<path id="Vector_332" d="M294.437 10.0012H293.877V238.554H294.437V10.0012Z" fill="#2CA9DF"/>
<path id="Vector_333" d="M294.998 10.0012H294.437V238.554H294.998V10.0012Z" fill="#2BAAE0"/>
<path id="Vector_334" d="M295.558 10.0012H294.998V238.554H295.558V10.0012Z" fill="#2AAAE1"/>
<path id="Vector_335" d="M296.118 10.0012H295.558V238.554H296.118V10.0012Z" fill="#29ABE2"/>
</g>
</g>
</g>
</g>
<defs>
<linearGradient id="paint0_linear_1_342" x1="164.277" y1="192.535" x2="250.271" y2="198.616" gradientUnits="userSpaceOnUse">
<stop stop-color="#F7931E"/>
<stop offset="0.54" stop-color="#ED1C24"/>
<stop offset="1" stop-color="#29ABE2"/>
</linearGradient>
</defs>
</svg>
